<svg width="1164px" height="1022px" viewBox="0 0 1164 1022" version="1.1" xmlns="http://www.w3.org/2000/svg" xmlns:xlink="http://www.w3.org/1999/xlink" xmlns:sketch="http://www.bohemiancoding.com/sketch/ns">
    <g id="Page-1" stroke="none" stroke-width="1" fill="none" fill-rule="evenodd" sketch:type="MSPage">
        <g id="Desktop-HD" sketch:type="MSArtboardGroup" transform="translate(-138.000000, 0.000000)">
            <g id="all" sketch:type="MSLayerGroup" transform="translate(138.000000, 0.000000)">
                <g id="bouteille-5" transform="translate(831.000000, 432.000000)" sketch:type="MSShapeGroup">
                    <path d="M237.1699,148.2826 C254.9649,134.3856 261.7369,111.6116 256.1309,91.1116 C255.7499,86.8806 258.0969,83.2656 263.2909,79.7506 L263.0349,79.6146 L322.3729,33.2706 L302.3019,7.5706 L242.9609,53.9186 L242.8889,53.6306 C237.5909,58.3936 233.0519,59.5596 228.5049,57.1166 L228.5059,57.1276 C210.2689,47.7966 187.5079,49.2236 170.2989,62.6636 C170.1309,62.7936 169.9759,62.9326 169.8109,63.0646 L169.8019,63.0526 L5.8769,191.0806 C0.2769,195.4566 -0.7171,203.5376 3.6579,209.1376 L54.6929,274.4806 C59.0659,280.0796 67.1499,281.0736 72.7489,276.7026 L236.6739,148.6726 L236.6629,148.6586 C236.8309,148.5296 237.0039,148.4136 237.1699,148.2826" id="Fill-1" fill="#F9F1BA"></path>
                    <path d="M243.4473,120.353 C241.1833,122.121 237.9133,121.72 236.1403,119.451 C234.3753,117.191 234.7793,113.922 237.0453,112.154 C239.3083,110.384 242.5823,110.781 244.3473,113.041 C246.1203,115.31 245.7123,118.583 243.4473,120.353" id="Fill-3" fill="#6B1951"></path>
                    <path d="M239.2697,99.2182 C239.3947,99.3792 239.5057,99.5452 239.6277,99.7062 L239.6517,99.7082 L239.2697,99.2182 Z" id="Fill-5" fill="#881A64"></path>
                    <path d="M239.6281,99.7065 C239.6281,99.7065 239.1201,99.0265 238.8731,98.7125 L238.8551,98.6885 C235.5431,94.4475 229.2701,94.4915 225.0311,97.8025 L225.0101,97.8215 C224.9771,97.8455 224.9521,97.8735 224.9201,97.8975 L224.9121,97.8955 L42.2901,240.5305 C41.9781,240.7205 41.6761,240.9265 41.3831,241.1545 C37.2281,244.3995 36.4301,250.3305 39.5061,254.5605 L39.4841,255.0095 L55.2761,275.2265 C59.5451,280.6925 67.2581,280.9895 72.7271,276.7195 L231.3381,152.8395 C247.7221,140.0425 252.0961,116.2355 239.6281,99.7065" id="Fill-7" fill="#F7EDAA"></path>
                    <path d="M315.3184,38.7769 L295.2474,13.0799 L302.4864,7.4249 L322.5574,33.1249 L315.3184,38.7769 Z" id="Fill-9" fill="#F6E19A"></path>
                    <path d="M329.6426,27.5834 L329.6716,27.5604 C333.3796,24.6644 333.7146,19.6834 330.9356,16.1224 L321.4016,3.9194 C318.6226,0.3604 313.3126,-1.0306 309.6026,1.8664 L309.5756,1.8904 L307.3746,3.6064 L327.4436,29.3024 L329.6426,27.5834 Z" id="Fill-11" fill="#F7EDAA"></path>
                    <path d="M129.3506,152.5483 L168.1326,202.2033 L225.0306,157.7653 L186.2476,108.1083 L129.3506,152.5483 Z" id="Fill-13" fill="#FCF9E5"></path>
                    <path d="M139.0254,164.935 L168.1134,202.179 L225.0104,157.741 L195.9224,120.496 L139.0254,164.935 Z" id="Fill-15" fill="#F9F1BA"></path>
                    <path d="M173.3477,133.1762 L197.5877,164.2122" id="Stroke-17" stroke="#E7D372" stroke-width="3.181" stroke-linecap="round"></path>
                    <path d="M170.7275,146.8813 L183.6545,163.4323" id="Stroke-19" stroke="#E7D372" stroke-width="3.181" stroke-linecap="round"></path>
                    <path d="M327.4463,29.3051 L307.3753,3.6071 L298.5023,10.5371 L318.5733,36.2381 L327.4463,29.3051 Z" id="Fill-21" fill="#F9F1BA"></path>
                    <path d="M4.7365,210.517 L53.6105,273.096 C55.1775,260.169 51.7775,244.618 41.8475,231.905 C31.9225,219.197 17.6555,212.127 4.7365,210.517" id="Fill-23" fill="#F7EDAA"></path>
                </g>
                <g id="bouteille-4" transform="translate(632.000000, 0.000000)" sketch:type="MSShapeGroup">
                    <path d="M61.5137,374.0238 L4.3597,454.5408 C-2.5073,464.2148 -0.2703,477.5898 9.3457,484.4158 L121.5817,564.0878 C131.2057,570.9188 143.9597,568.1848 150.8267,558.5108 L208.2187,478.1638 L61.5137,374.0238 Z" id="Fill-25" fill="#F9F1BA"></path>
                    <path d="M352.9951,165.3334 L434.6031,50.3684 L390.2181,18.8604 L309.5511,132.4994 C279.0701,175.4384 182.4331,203.6794 132.1451,274.5214 C95.6351,325.9564 14.7871,439.8504 14.7871,439.8504 L161.4921,543.9894 C161.4921,543.9894 242.3401,430.0954 278.8501,378.6614 C327.5411,310.0694 325.6261,210.3984 352.9951,165.3334" id="Fill-27" fill="#F9F1BA"></path>
                    <path d="M425.0547,63.8197 L380.6687,32.3117 L389.5617,19.7847 L433.9477,51.2927 L425.0547,63.8197 Z" id="Fill-29" fill="#F6E19A"></path>
                    <path d="M443.7939,37.2621 L443.8359,37.2021 C448.3669,30.8191 446.8809,22.8071 440.7539,18.4571 L419.6989,3.5121 C413.5679,-0.8409 404.0139,-0.6669 399.4819,5.7171 L399.4399,5.7771 L395.8649,10.8131 L440.2189,42.2981 L443.7939,37.2621 Z" id="Fill-31" fill="#F7EDAA"></path>
                    <path d="M292.3105,257.9351 C292.2365,257.8511 292.1585,257.7731 292.0825,257.6911 C291.8675,257.4801 291.6545,257.2651 291.4315,257.0631 C290.8985,256.5601 290.3365,256.0781 289.7225,255.6421 L289.4275,255.4331 C282.3335,250.3971 272.6035,251.8611 267.2715,258.5951 L267.2615,258.5321 L266.7365,259.2731 L266.5175,259.5791 L84.7335,515.6691 L84.7335,516.2081 C84.5315,516.4591 84.3205,516.7041 84.1305,516.9721 C79.0375,524.1481 80.5855,534.0091 87.5145,539.3041 L87.7055,540.0381 L122.6405,564.8371 C132.0795,571.5381 144.3325,568.1611 151.0365,558.7181 L281.6935,374.6561 C301.1485,347.2491 312.4765,278.5051 292.3105,257.9351" id="Fill-33" fill="#F7EDAA"></path>
                    <path d="M121.1768,362.0034 L207.0568,422.9644 L275.6308,326.3584 L189.7518,265.3984 L121.1768,362.0034 Z" id="Fill-35" fill="#FCF9E5"></path>
                    <path d="M169.4756,396.2885 L207.0566,422.9645 L275.6306,326.3585 L238.0506,299.6835 L169.4756,396.2885 Z" id="Fill-37" fill="#F9F1BA"></path>
                    <path d="M179.2998,310.4447 L234.7538,349.8097" id="Stroke-39" stroke="#E7D372" stroke-width="5" stroke-linecap="round"></path>
                    <path d="M181.6582,333.6362 L212.0792,355.2302" id="Stroke-41" stroke="#E7D372" stroke-width="5" stroke-linecap="round"></path>
                    <path d="M11.2412,485.7612 L119.3412,562.4952 C115.6832,541.0602 102.7972,517.8252 80.8312,502.2342 C58.8762,486.6482 32.6912,482.1482 11.2412,485.7612" id="Fill-43" fill="#F7EDAA"></path>
                    <path d="M440.8174,41.6137 L396.4314,10.1067 L385.5534,25.4307 L429.9394,56.9387 L440.8174,41.6137 Z" id="Fill-45" fill="#F9F1BA"></path>
                </g>
                <g id="bouteille-3" transform="translate(0.000000, 574.000000)" sketch:type="MSShapeGroup">
                    <path d="M86.0635,82.4125 L104.2915,94.3585 C106.4835,95.7955 109.4155,95.1935 110.8405,93.0155 L127.4975,67.6055 C128.9235,65.4275 128.2175,62.6355 126.0275,61.1995 L107.8345,49.1995 L86.0635,82.4125 Z" id="Fill-47" fill="#F9F1BA"></path>
                    <path d="M37.6426,19.8246 L11.6186,2.7626 L5.0286,12.8126 L30.7536,29.6766 C40.4796,36.0496 47.4986,57.1346 63.5366,67.6466 C75.1816,75.2786 100.9666,92.1816 100.9666,92.1816 L122.7386,58.9676 C122.7386,58.9676 96.9526,42.0646 85.3066,34.4326 C69.7786,24.2546 47.8076,25.4926 37.6426,19.8246" id="Fill-49" fill="#F9F1BA"></path>
                    <path d="M14.6621,4.7592 L8.0751,14.8092 L5.2381,12.9492 L11.8231,2.9012 L14.6621,4.7592 Z" id="Fill-51" fill="#F6E19A"></path>
                    <path d="M8.6494,0.8442 L8.6364,0.8362 C7.1904,-0.1108 5.4364,0.2822 4.5264,1.6682 L1.4024,6.4352 C0.4924,7.8222 0.6084,9.9292 2.0554,10.8772 L2.0684,10.8852 L3.2094,11.6342 L9.7884,1.5912 L8.6494,0.8442 Z" id="Fill-53" fill="#F7EDAA"></path>
                    <path d="M58.5674,32.4516 C58.5484,32.4696 58.5324,32.4876 58.5144,32.5056 C58.4714,32.5536 58.4244,32.6036 58.3814,32.6526 C58.2754,32.7756 58.1734,32.9026 58.0824,33.0426 L58.0384,33.1086 C56.9854,34.7146 57.3894,36.8486 58.9184,37.9696 L58.9034,37.9746 L59.0734,38.0826 L59.1414,38.1276 L117.1194,76.1296 L117.2374,76.1246 C117.2944,76.1696 117.3494,76.2136 117.4114,76.2526 C119.0364,77.3176 121.1974,76.8946 122.3084,75.3246 L122.4704,75.2756 L127.6544,67.3656 C129.0544,65.2286 128.2104,62.5536 126.0734,61.1526 L84.3994,33.8396 C78.1964,29.7716 62.9394,27.8346 58.5674,32.4516" id="Fill-55" fill="#F7EDAA"></path>
                    <path d="M82.9248,69.35 L95.6668,49.907 L73.7958,35.572 L61.0528,55.014 L82.9248,69.35 Z" id="Fill-57" fill="#FCF9E5"></path>
                    <path d="M90.0918,58.4164 L95.6668,49.9064 L73.7958,35.5714 L68.2198,44.0784 L90.0918,58.4164 Z" id="Fill-59" fill="#F9F1BA"></path>
                    <path d="M71.0752,56.9516 L79.3042,44.3966" id="Stroke-61" stroke="#E7D372" stroke-width="1.954" stroke-linecap="round"></path>
                    <path d="M76.1719,56.2406 L80.6859,49.3526" id="Stroke-63" stroke="#E7D372" stroke-width="1.954" stroke-linecap="round"></path>
                    <path d="M111.124,92.5863 L127.165,68.1133 C122.467,69.0963 117.446,72.1293 114.189,77.1013 C110.928,82.0723 110.151,87.8853 111.124,92.5863" id="Fill-65" fill="#F7EDAA"></path>
                    <path d="M9.6338,1.4653 L3.0478,11.5143 L6.5168,13.7883 L13.1028,3.7393 L9.6338,1.4653 Z" id="Fill-67" fill="#F9F1BA"></path>
                </g>
                <g id="bouteille-2" transform="translate(162.000000, 59.000000)" sketch:type="MSShapeGroup">
                    <path d="M136.0196,95.4223 C112.8446,71.1843 59.3816,43.9123 36.0916,21.5203 L21.9476,6.7253 L6.2216,21.7613 L18.0496,34.1333 C39.8696,56.9533 65.5776,114.3823 89.5756,139.4833 C98.0836,148.3813 111.6976,162.6193 123.4006,174.8613 L145.8256,198.3163 L150.6366,203.3473 C153.9146,206.7743 159.5516,207.0303 162.9806,203.7523 L198.0176,170.2533 C201.4456,166.9763 200.1856,162.5333 196.9086,159.1073 L169.6726,130.6193 L169.2146,131.0593 L169.4486,130.3873 C169.4486,130.3873 153.4436,113.6473 136.0196,95.4223" id="Fill-69" fill="#F9F1BA"></path>
                    <path d="M26.5039,11.4907 L10.7359,26.5677 L6.4919,22.1297 L22.2609,7.0527 L26.5039,11.4907 Z" id="Fill-71" fill="#F6E19A"></path>
                    <path d="M17.5127,2.1127 L17.4927,2.0917 C15.3307,-0.1703 11.8277,0.0417 9.6567,2.1177 L2.2037,9.2417 C0.0307,11.3217 -0.3703,14.8417 1.7917,17.1027 L1.8127,17.1247 L3.5177,18.9087 L19.2187,3.8967 L17.5127,2.1127 Z" id="Fill-73" fill="#F7EDAA"></path>
                    <path d="M92.7471,87.0327 L92.7431,86.9607 L91.8971,86.0747 L92.7471,87.0327 Z" id="Fill-75" fill="#F7EDAA"></path>
                    <path d="M92.1983,78.5082 L92.1993,78.5332 C92.1503,78.5782 92.0913,78.6092 92.0433,78.6562 L92.0293,78.6692 C89.9443,80.6632 89.8773,83.9632 91.8693,86.0462 L91.8783,86.0552 C92.1403,86.3302 92.4273,86.5662 92.7303,86.7712 L92.7433,86.9602 L179.6103,177.8162 L179.6423,177.8242 C179.7453,177.9482 179.8463,178.0712 179.9593,178.1892 C182.3623,180.7032 186.2903,180.8622 188.8923,178.6212 L189.3193,178.5712 L198.4173,169.8732 C201.0843,167.3212 200.2873,162.6412 197.0883,159.2942 L134.7353,94.0782 C121.9943,80.7542 99.4213,71.6022 92.1983,78.5082" id="Fill-77" fill="#F7EDAA"></path>
                    <path d="M120.1543,153.6978 L151.2123,124.0028 L118.4863,89.7748 L87.4283,119.4688 L120.1543,153.6978 Z" id="Fill-79" fill="#FCF9E5"></path>
                    <path d="M139.1699,135.518 L151.2119,124.002 L118.4859,89.775 L106.4429,101.289 L139.1699,135.518 Z" id="Fill-81" fill="#F9F1BA"></path>
                    <path d="M104.9502,126.3774 L124.6002,107.5904" id="Stroke-83" stroke="#E7D372" stroke-width="3" stroke-linecap="round"></path>
                    <path d="M114.2344,127.2055 L125.0124,116.9005" id="Stroke-85" stroke="#E7D372" stroke-width="3" stroke-linecap="round"></path>
                    <path d="M18.9824,3.6235 L3.2554,18.6595 L8.4474,24.0895 L24.1734,9.0525 L18.9824,3.6235 Z" id="Fill-87" fill="#F9F1BA"></path>
                    <path d="M163.7725,202.9946 L198.5035,169.7896 C190.2255,169.2086 180.7655,171.8806 173.7105,178.6266 C166.6585,185.3696 163.5625,194.6996 163.7725,202.9946" id="Fill-89" fill="#F7EDAA"></path>
                </g>
                <g id="bouteille-1" transform="translate(143.000000, 499.000000)" sketch:type="MSShapeGroup">
                    <g id="Group-94" transform="translate(13.000000, 16.000000)" fill="#F9F1BA">
                        <path d="M305.5225,234.1977 C252.6955,171.6587 126.5275,97.1817 73.1435,39.1207 L40.9025,0.9497 L0.3255,35.2247 L27.2895,67.1427 C77.0255,126.0227 131.0395,269.8117 185.7435,334.5767 C205.1375,357.5357 236.1685,394.2747 262.8455,425.8587 L313.9625,486.3717 L324.9275,499.3537 C332.3995,508.1977 346.0985,509.6697 354.9475,502.1937 L445.3435,425.8357 C454.1915,418.3657 451.7825,407.3537 444.3165,398.5087 L382.2335,325.0117 L381.0515,326.0107 L381.7235,324.4107 C381.7235,324.4107 345.2385,281.2157 305.5225,234.1977" id="Fill-92"></path>
                    </g>
                    <path d="M64.292,29.2446 L23.607,63.6116 L13.934,52.1626 L54.618,17.7936 L64.292,29.2446 Z" id="Fill-95" fill="#F6E19A"></path>
                    <path d="M43.7891,5.0473 L43.7441,4.9893 C38.8151,-0.8447 30.2511,-0.8557 24.6431,3.8773 L5.4191,20.1163 C-0.1909,24.8553 -1.6949,33.3753 3.2321,39.2053 L3.2831,39.2643 L7.1691,43.8663 L47.6801,9.6503 L43.7891,5.0473 Z" id="Fill-97" fill="#F7EDAA"></path>
                    <path d="M214.3487,223.2553 L214.3487,223.0783 L212.4197,220.7933 L214.3487,223.2553 Z" id="Fill-99" fill="#F7EDAA"></path>
                    <g id="Group-103" transform="translate(209.000000, 197.000000)" fill="#F7EDAA">
                        <path d="M5.2862,5.4047 L5.2872,5.4667 C5.1612,5.5657 5.0162,5.6317 4.8902,5.7387 L4.8552,5.7737 C-0.5268,10.3167 -1.1838,18.3447 3.3582,23.7197 L3.3772,23.7427 C3.9742,24.4507 4.6362,25.0667 5.3442,25.6157 L5.3482,26.0787 L203.3572,260.4987 L203.4382,260.5277 C203.6702,260.8417 203.8952,261.1557 204.1522,261.4597 C209.6302,267.9437 219.1792,268.9207 225.8572,263.8517 L226.9012,263.7957 L250.3752,243.9707 C257.2532,238.1507 256.0152,226.6257 248.7232,217.9927 L106.5942,49.7307 C77.5522,15.3497 23.9232,-10.3393 5.2862,5.4047" id="Fill-101"></path>
                    </g>
                    <path d="M271.1143,389.8012 L351.2493,322.1152 L276.6503,233.8012 L196.5193,301.4882 L271.1143,389.8012 Z" id="Fill-104" fill="#FCF9E5"></path>
                    <path d="M320.1739,348.3637 L351.2489,322.1157 L276.6509,233.8017 L245.5789,260.0497 L320.1739,348.3637 Z" id="Fill-106" fill="#F9F1BA"></path>
                    <path d="M238.1699,320.9516 L288.8679,278.1266" id="Stroke-108" stroke="#E7D372" stroke-width="7.323" stroke-linecap="round"></path>
                    <path d="M260.6699,324.3627 L288.4769,300.8757" id="Stroke-110" stroke="#E7D372" stroke-width="7.323" stroke-linecap="round"></path>
                    <path d="M47.1436,8.9478 L6.5666,43.2208 L18.4026,57.2308 L58.9766,22.9538 L47.1436,8.9478 Z" id="Fill-112" fill="#F9F1BA"></path>
                </g>
            </g>
        </g>
    </g>
</svg>
