<svg id="bouteille-4" width="447px" height="569px" viewBox="0 0 447 569" version="1.1" xmlns="http://www.w3.org/2000/svg" xmlns:xlink="http://www.w3.org/1999/xlink" xmlns:sketch="http://www.bohemiancoding.com/sketch/ns">
    <g id="Page-1" stroke="none" stroke-width="1" fill="none" fill-rule="evenodd" sketch:type="MSPage">
        <g id="Desktop-HD" sketch:type="MSArtboardGroup" transform="translate(-770.000000, 0.000000)">
            <g id="all" sketch:type="MSLayerGroup" transform="translate(138.000000, 0.000000)">
                <g id="bouteille-4" transform="translate(632.000000, 0.000000)" sketch:type="MSShapeGroup">
                    <path d="M61.5137,374.0238 L4.3597,454.5408 C-2.5073,464.2148 -0.2703,477.5898 9.3457,484.4158 L121.5817,564.0878 C131.2057,570.9188 143.9597,568.1848 150.8267,558.5108 L208.2187,478.1638 L61.5137,374.0238 Z" id="Fill-25" fill="#F9F1BA"></path>
                    <path d="M352.9951,165.3334 L434.6031,50.3684 L390.2181,18.8604 L309.5511,132.4994 C279.0701,175.4384 182.4331,203.6794 132.1451,274.5214 C95.6351,325.9564 14.7871,439.8504 14.7871,439.8504 L161.4921,543.9894 C161.4921,543.9894 242.3401,430.0954 278.8501,378.6614 C327.5411,310.0694 325.6261,210.3984 352.9951,165.3334" id="Fill-27" fill="#F9F1BA"></path>
                    <path d="M425.0547,63.8197 L380.6687,32.3117 L389.5617,19.7847 L433.9477,51.2927 L425.0547,63.8197 Z" id="Fill-29" fill="#F6E19A"></path>
                    <path d="M443.7939,37.2621 L443.8359,37.2021 C448.3669,30.8191 446.8809,22.8071 440.7539,18.4571 L419.6989,3.5121 C413.5679,-0.8409 404.0139,-0.6669 399.4819,5.7171 L399.4399,5.7771 L395.8649,10.8131 L440.2189,42.2981 L443.7939,37.2621 Z" id="Fill-31" fill="#F7EDAA"></path>
                    <path d="M292.3105,257.9351 C292.2365,257.8511 292.1585,257.7731 292.0825,257.6911 C291.8675,257.4801 291.6545,257.2651 291.4315,257.0631 C290.8985,256.5601 290.3365,256.0781 289.7225,255.6421 L289.4275,255.4331 C282.3335,250.3971 272.6035,251.8611 267.2715,258.5951 L267.2615,258.5321 L266.7365,259.2731 L266.5175,259.5791 L84.7335,515.6691 L84.7335,516.2081 C84.5315,516.4591 84.3205,516.7041 84.1305,516.9721 C79.0375,524.1481 80.5855,534.0091 87.5145,539.3041 L87.7055,540.0381 L122.6405,564.8371 C132.0795,571.5381 144.3325,568.1611 151.0365,558.7181 L281.6935,374.6561 C301.1485,347.2491 312.4765,278.5051 292.3105,257.9351" id="Fill-33" fill="#F7EDAA"></path>
                    <path d="M121.1768,362.0034 L207.0568,422.9644 L275.6308,326.3584 L189.7518,265.3984 L121.1768,362.0034 Z" id="Fill-35" fill="#FCF9E5"></path>
                    <path d="M169.4756,396.2885 L207.0566,422.9645 L275.6306,326.3585 L238.0506,299.6835 L169.4756,396.2885 Z" id="Fill-37" fill="#F9F1BA"></path>
                    <path d="M179.2998,310.4447 L234.7538,349.8097" id="Stroke-39" stroke="#E7D372" stroke-width="5" stroke-linecap="round"></path>
                    <path d="M181.6582,333.6362 L212.0792,355.2302" id="Stroke-41" stroke="#E7D372" stroke-width="5" stroke-linecap="round"></path>
                    <path d="M11.2412,485.7612 L119.3412,562.4952 C115.6832,541.0602 102.7972,517.8252 80.8312,502.2342 C58.8762,486.6482 32.6912,482.1482 11.2412,485.7612" id="Fill-43" fill="#F7EDAA"></path>
                    <path d="M440.8174,41.6137 L396.4314,10.1067 L385.5534,25.4307 L429.9394,56.9387 L440.8174,41.6137 Z" id="Fill-45" fill="#F9F1BA"></path>
                </g>
            </g>
        </g>
    </g>
</svg>
