<svg id="bouteille-1" width="464px" height="523px" viewBox="0 0 464 523" version="1.1" xmlns="http://www.w3.org/2000/svg" xmlns:xlink="http://www.w3.org/1999/xlink" xmlns:sketch="http://www.bohemiancoding.com/sketch/ns">
    <g id="Page-1" stroke="none" stroke-width="1" fill="none" fill-rule="evenodd" sketch:type="MSPage">
        <g id="Desktop-HD" sketch:type="MSArtboardGroup" transform="translate(-281.000000, -499.000000)">
            <g id="all" sketch:type="MSLayerGroup" transform="translate(138.000000, 0.000000)">
                <g id="bouteille-1" transform="translate(143.000000, 499.000000)" sketch:type="MSShapeGroup">
                    <g id="Group-94" transform="translate(13.000000, 16.000000)" fill="#F9F1BA">
                        <path d="M305.5225,234.1977 C252.6955,171.6587 126.5275,97.1817 73.1435,39.1207 L40.9025,0.9497 L0.3255,35.2247 L27.2895,67.1427 C77.0255,126.0227 131.0395,269.8117 185.7435,334.5767 C205.1375,357.5357 236.1685,394.2747 262.8455,425.8587 L313.9625,486.3717 L324.9275,499.3537 C332.3995,508.1977 346.0985,509.6697 354.9475,502.1937 L445.3435,425.8357 C454.1915,418.3657 451.7825,407.3537 444.3165,398.5087 L382.2335,325.0117 L381.0515,326.0107 L381.7235,324.4107 C381.7235,324.4107 345.2385,281.2157 305.5225,234.1977" id="Fill-92"></path>
                    </g>
                    <path d="M64.292,29.2446 L23.607,63.6116 L13.934,52.1626 L54.618,17.7936 L64.292,29.2446 Z" id="Fill-95" fill="#F6E19A"></path>
                    <path d="M43.7891,5.0473 L43.7441,4.9893 C38.8151,-0.8447 30.2511,-0.8557 24.6431,3.8773 L5.4191,20.1163 C-0.1909,24.8553 -1.6949,33.3753 3.2321,39.2053 L3.2831,39.2643 L7.1691,43.8663 L47.6801,9.6503 L43.7891,5.0473 Z" id="Fill-97" fill="#F7EDAA"></path>
                    <path d="M214.3487,223.2553 L214.3487,223.0783 L212.4197,220.7933 L214.3487,223.2553 Z" id="Fill-99" fill="#F7EDAA"></path>
                    <g id="Group-103" transform="translate(209.000000, 197.000000)" fill="#F7EDAA">
                        <path d="M5.2862,5.4047 L5.2872,5.4667 C5.1612,5.5657 5.0162,5.6317 4.8902,5.7387 L4.8552,5.7737 C-0.5268,10.3167 -1.1838,18.3447 3.3582,23.7197 L3.3772,23.7427 C3.9742,24.4507 4.6362,25.0667 5.3442,25.6157 L5.3482,26.0787 L203.3572,260.4987 L203.4382,260.5277 C203.6702,260.8417 203.8952,261.1557 204.1522,261.4597 C209.6302,267.9437 219.1792,268.9207 225.8572,263.8517 L226.9012,263.7957 L250.3752,243.9707 C257.2532,238.1507 256.0152,226.6257 248.7232,217.9927 L106.5942,49.7307 C77.5522,15.3497 23.9232,-10.3393 5.2862,5.4047" id="Fill-101"></path>
                    </g>
                    <path d="M271.1143,389.8012 L351.2493,322.1152 L276.6503,233.8012 L196.5193,301.4882 L271.1143,389.8012 Z" id="Fill-104" fill="#FCF9E5"></path>
                    <path d="M320.1739,348.3637 L351.2489,322.1157 L276.6509,233.8017 L245.5789,260.0497 L320.1739,348.3637 Z" id="Fill-106" fill="#F9F1BA"></path>
                    <path d="M238.1699,320.9516 L288.8679,278.1266" id="Stroke-108" stroke="#E7D372" stroke-width="7.323" stroke-linecap="round"></path>
                    <path d="M260.6699,324.3627 L288.4769,300.8757" id="Stroke-110" stroke="#E7D372" stroke-width="7.323" stroke-linecap="round"></path>
                    <path d="M47.1436,8.9478 L6.5666,43.2208 L18.4026,57.2308 L58.9766,22.9538 L47.1436,8.9478 Z" id="Fill-112" fill="#F9F1BA"></path>
                </g>
            </g>
        </g>
    </g>
</svg>
