<svg id="bouteille-3" width="129px" height="96px" viewBox="0 0 129 96" version="1.1" xmlns="http://www.w3.org/2000/svg" xmlns:xlink="http://www.w3.org/1999/xlink" xmlns:sketch="http://www.bohemiancoding.com/sketch/ns">
    <g id="Page-1" stroke="none" stroke-width="1" fill="none" fill-rule="evenodd" sketch:type="MSPage">
        <g id="Desktop-HD" sketch:type="MSArtboardGroup" transform="translate(-138.000000, -574.000000)">
            <g id="all" sketch:type="MSLayerGroup" transform="translate(138.000000, 0.000000)">
                <g id="bouteille-3" transform="translate(0.000000, 574.000000)" sketch:type="MSShapeGroup">
                    <path d="M86.0635,82.4125 L104.2915,94.3585 C106.4835,95.7955 109.4155,95.1935 110.8405,93.0155 L127.4975,67.6055 C128.9235,65.4275 128.2175,62.6355 126.0275,61.1995 L107.8345,49.1995 L86.0635,82.4125 Z" id="Fill-47" fill="#F9F1BA"></path>
                    <path d="M37.6426,19.8246 L11.6186,2.7626 L5.0286,12.8126 L30.7536,29.6766 C40.4796,36.0496 47.4986,57.1346 63.5366,67.6466 C75.1816,75.2786 100.9666,92.1816 100.9666,92.1816 L122.7386,58.9676 C122.7386,58.9676 96.9526,42.0646 85.3066,34.4326 C69.7786,24.2546 47.8076,25.4926 37.6426,19.8246" id="Fill-49" fill="#F9F1BA"></path>
                    <path d="M14.6621,4.7592 L8.0751,14.8092 L5.2381,12.9492 L11.8231,2.9012 L14.6621,4.7592 Z" id="Fill-51" fill="#F6E19A"></path>
                    <path d="M8.6494,0.8442 L8.6364,0.8362 C7.1904,-0.1108 5.4364,0.2822 4.5264,1.6682 L1.4024,6.4352 C0.4924,7.8222 0.6084,9.9292 2.0554,10.8772 L2.0684,10.8852 L3.2094,11.6342 L9.7884,1.5912 L8.6494,0.8442 Z" id="Fill-53" fill="#F7EDAA"></path>
                    <path d="M58.5674,32.4516 C58.5484,32.4696 58.5324,32.4876 58.5144,32.5056 C58.4714,32.5536 58.4244,32.6036 58.3814,32.6526 C58.2754,32.7756 58.1734,32.9026 58.0824,33.0426 L58.0384,33.1086 C56.9854,34.7146 57.3894,36.8486 58.9184,37.9696 L58.9034,37.9746 L59.0734,38.0826 L59.1414,38.1276 L117.1194,76.1296 L117.2374,76.1246 C117.2944,76.1696 117.3494,76.2136 117.4114,76.2526 C119.0364,77.3176 121.1974,76.8946 122.3084,75.3246 L122.4704,75.2756 L127.6544,67.3656 C129.0544,65.2286 128.2104,62.5536 126.0734,61.1526 L84.3994,33.8396 C78.1964,29.7716 62.9394,27.8346 58.5674,32.4516" id="Fill-55" fill="#F7EDAA"></path>
                    <path d="M82.9248,69.35 L95.6668,49.907 L73.7958,35.572 L61.0528,55.014 L82.9248,69.35 Z" id="Fill-57" fill="#FCF9E5"></path>
                    <path d="M90.0918,58.4164 L95.6668,49.9064 L73.7958,35.5714 L68.2198,44.0784 L90.0918,58.4164 Z" id="Fill-59" fill="#F9F1BA"></path>
                    <path d="M71.0752,56.9516 L79.3042,44.3966" id="Stroke-61" stroke="#E7D372" stroke-width="1.954" stroke-linecap="round"></path>
                    <path d="M76.1719,56.2406 L80.6859,49.3526" id="Stroke-63" stroke="#E7D372" stroke-width="1.954" stroke-linecap="round"></path>
                    <path d="M111.124,92.5863 L127.165,68.1133 C122.467,69.0963 117.446,72.1293 114.189,77.1013 C110.928,82.0723 110.151,87.8853 111.124,92.5863" id="Fill-65" fill="#F7EDAA"></path>
                    <path d="M9.6338,1.4653 L3.0478,11.5143 L6.5168,13.7883 L13.1028,3.7393 L9.6338,1.4653 Z" id="Fill-67" fill="#F9F1BA"></path>
                </g>
            </g>
        </g>
    </g>
</svg>
