<svg id="bouteille-5" width="333px" height="280px" viewBox="0 0 333 280" version="1.1" xmlns="http://www.w3.org/2000/svg" xmlns:xlink="http://www.w3.org/1999/xlink" xmlns:sketch="http://www.bohemiancoding.com/sketch/ns">
    <g id="Page-1" stroke="none" stroke-width="1" fill="none" fill-rule="evenodd" sketch:type="MSPage">
        <g id="Desktop-HD" sketch:type="MSArtboardGroup" transform="translate(-969.000000, -432.000000)">
            <g id="all" sketch:type="MSLayerGroup" transform="translate(138.000000, 0.000000)">
                <g id="bouteille-5" transform="translate(831.000000, 432.000000)" sketch:type="MSShapeGroup">
                    <path d="M237.1699,148.2826 C254.9649,134.3856 261.7369,111.6116 256.1309,91.1116 C255.7499,86.8806 258.0969,83.2656 263.2909,79.7506 L263.0349,79.6146 L322.3729,33.2706 L302.3019,7.5706 L242.9609,53.9186 L242.8889,53.6306 C237.5909,58.3936 233.0519,59.5596 228.5049,57.1166 L228.5059,57.1276 C210.2689,47.7966 187.5079,49.2236 170.2989,62.6636 C170.1309,62.7936 169.9759,62.9326 169.8109,63.0646 L169.8019,63.0526 L5.8769,191.0806 C0.2769,195.4566 -0.7171,203.5376 3.6579,209.1376 L54.6929,274.4806 C59.0659,280.0796 67.1499,281.0736 72.7489,276.7026 L236.6739,148.6726 L236.6629,148.6586 C236.8309,148.5296 237.0039,148.4136 237.1699,148.2826" id="Fill-1" fill="#F9F1BA"></path>
                    <path d="M243.4473,120.353 C241.1833,122.121 237.9133,121.72 236.1403,119.451 C234.3753,117.191 234.7793,113.922 237.0453,112.154 C239.3083,110.384 242.5823,110.781 244.3473,113.041 C246.1203,115.31 245.7123,118.583 243.4473,120.353" id="Fill-3" fill="#6B1951"></path>
                    <path d="M239.2697,99.2182 C239.3947,99.3792 239.5057,99.5452 239.6277,99.7062 L239.6517,99.7082 L239.2697,99.2182 Z" id="Fill-5" fill="#881A64"></path>
                    <path d="M239.6281,99.7065 C239.6281,99.7065 239.1201,99.0265 238.8731,98.7125 L238.8551,98.6885 C235.5431,94.4475 229.2701,94.4915 225.0311,97.8025 L225.0101,97.8215 C224.9771,97.8455 224.9521,97.8735 224.9201,97.8975 L224.9121,97.8955 L42.2901,240.5305 C41.9781,240.7205 41.6761,240.9265 41.3831,241.1545 C37.2281,244.3995 36.4301,250.3305 39.5061,254.5605 L39.4841,255.0095 L55.2761,275.2265 C59.5451,280.6925 67.2581,280.9895 72.7271,276.7195 L231.3381,152.8395 C247.7221,140.0425 252.0961,116.2355 239.6281,99.7065" id="Fill-7" fill="#F7EDAA"></path>
                    <path d="M315.3184,38.7769 L295.2474,13.0799 L302.4864,7.4249 L322.5574,33.1249 L315.3184,38.7769 Z" id="Fill-9" fill="#F6E19A"></path>
                    <path d="M329.6426,27.5834 L329.6716,27.5604 C333.3796,24.6644 333.7146,19.6834 330.9356,16.1224 L321.4016,3.9194 C318.6226,0.3604 313.3126,-1.0306 309.6026,1.8664 L309.5756,1.8904 L307.3746,3.6064 L327.4436,29.3024 L329.6426,27.5834 Z" id="Fill-11" fill="#F7EDAA"></path>
                    <path d="M129.3506,152.5483 L168.1326,202.2033 L225.0306,157.7653 L186.2476,108.1083 L129.3506,152.5483 Z" id="Fill-13" fill="#FCF9E5"></path>
                    <path d="M139.0254,164.935 L168.1134,202.179 L225.0104,157.741 L195.9224,120.496 L139.0254,164.935 Z" id="Fill-15" fill="#F9F1BA"></path>
                    <path d="M173.3477,133.1762 L197.5877,164.2122" id="Stroke-17" stroke="#E7D372" stroke-width="3.181" stroke-linecap="round"></path>
                    <path d="M170.7275,146.8813 L183.6545,163.4323" id="Stroke-19" stroke="#E7D372" stroke-width="3.181" stroke-linecap="round"></path>
                    <path d="M327.4463,29.3051 L307.3753,3.6071 L298.5023,10.5371 L318.5733,36.2381 L327.4463,29.3051 Z" id="Fill-21" fill="#F9F1BA"></path>
                    <path d="M4.7365,210.517 L53.6105,273.096 C55.1775,260.169 51.7775,244.618 41.8475,231.905 C31.9225,219.197 17.6555,212.127 4.7365,210.517" id="Fill-23" fill="#F7EDAA"></path>
                </g>
            </g>
        </g>
    </g>
</svg>
