<svg id="bouteille-2" width="201px" height="207px" viewBox="0 0 201 207" version="1.1" xmlns="http://www.w3.org/2000/svg" xmlns:xlink="http://www.w3.org/1999/xlink" xmlns:sketch="http://www.bohemiancoding.com/sketch/ns">
    <g id="Page-1" stroke="none" stroke-width="1" fill="none" fill-rule="evenodd" sketch:type="MSPage">
        <g id="Desktop-HD" sketch:type="MSArtboardGroup" transform="translate(-300.000000, -59.000000)">
            <g id="all" sketch:type="MSLayerGroup" transform="translate(138.000000, 0.000000)">
                <g id="bouteille-2" transform="translate(162.000000, 59.000000)" sketch:type="MSShapeGroup">
                    <path d="M136.0196,95.4223 C112.8446,71.1843 59.3816,43.9123 36.0916,21.5203 L21.9476,6.7253 L6.2216,21.7613 L18.0496,34.1333 C39.8696,56.9533 65.5776,114.3823 89.5756,139.4833 C98.0836,148.3813 111.6976,162.6193 123.4006,174.8613 L145.8256,198.3163 L150.6366,203.3473 C153.9146,206.7743 159.5516,207.0303 162.9806,203.7523 L198.0176,170.2533 C201.4456,166.9763 200.1856,162.5333 196.9086,159.1073 L169.6726,130.6193 L169.2146,131.0593 L169.4486,130.3873 C169.4486,130.3873 153.4436,113.6473 136.0196,95.4223" id="Fill-69" fill="#F9F1BA"></path>
                    <path d="M26.5039,11.4907 L10.7359,26.5677 L6.4919,22.1297 L22.2609,7.0527 L26.5039,11.4907 Z" id="Fill-71" fill="#F6E19A"></path>
                    <path d="M17.5127,2.1127 L17.4927,2.0917 C15.3307,-0.1703 11.8277,0.0417 9.6567,2.1177 L2.2037,9.2417 C0.0307,11.3217 -0.3703,14.8417 1.7917,17.1027 L1.8127,17.1247 L3.5177,18.9087 L19.2187,3.8967 L17.5127,2.1127 Z" id="Fill-73" fill="#F7EDAA"></path>
                    <path d="M92.7471,87.0327 L92.7431,86.9607 L91.8971,86.0747 L92.7471,87.0327 Z" id="Fill-75" fill="#F7EDAA"></path>
                    <path d="M92.1983,78.5082 L92.1993,78.5332 C92.1503,78.5782 92.0913,78.6092 92.0433,78.6562 L92.0293,78.6692 C89.9443,80.6632 89.8773,83.9632 91.8693,86.0462 L91.8783,86.0552 C92.1403,86.3302 92.4273,86.5662 92.7303,86.7712 L92.7433,86.9602 L179.6103,177.8162 L179.6423,177.8242 C179.7453,177.9482 179.8463,178.0712 179.9593,178.1892 C182.3623,180.7032 186.2903,180.8622 188.8923,178.6212 L189.3193,178.5712 L198.4173,169.8732 C201.0843,167.3212 200.2873,162.6412 197.0883,159.2942 L134.7353,94.0782 C121.9943,80.7542 99.4213,71.6022 92.1983,78.5082" id="Fill-77" fill="#F7EDAA"></path>
                    <path d="M120.1543,153.6978 L151.2123,124.0028 L118.4863,89.7748 L87.4283,119.4688 L120.1543,153.6978 Z" id="Fill-79" fill="#FCF9E5"></path>
                    <path d="M139.1699,135.518 L151.2119,124.002 L118.4859,89.775 L106.4429,101.289 L139.1699,135.518 Z" id="Fill-81" fill="#F9F1BA"></path>
                    <path d="M104.9502,126.3774 L124.6002,107.5904" id="Stroke-83" stroke="#E7D372" stroke-width="3" stroke-linecap="round"></path>
                    <path d="M114.2344,127.2055 L125.0124,116.9005" id="Stroke-85" stroke="#E7D372" stroke-width="3" stroke-linecap="round"></path>
                    <path d="M18.9824,3.6235 L3.2554,18.6595 L8.4474,24.0895 L24.1734,9.0525 L18.9824,3.6235 Z" id="Fill-87" fill="#F9F1BA"></path>
                    <path d="M163.7725,202.9946 L198.5035,169.7896 C190.2255,169.2086 180.7655,171.8806 173.7105,178.6266 C166.6585,185.3696 163.5625,194.6996 163.7725,202.9946" id="Fill-89" fill="#F7EDAA"></path>
                </g>
            </g>
        </g>
    </g>
</svg>
