<?xml version="1.0" encoding="UTF-8" standalone="no"?>
<svg width="1418px" height="835px" viewBox="0 0 1418 835" version="1.1" xmlns="http://www.w3.org/2000/svg" xmlns:xlink="http://www.w3.org/1999/xlink" xmlns:sketch="http://www.bohemiancoding.com/sketch/ns">
    <!-- Generator: Sketch 3.4.4 (17249) - http://www.bohemiancoding.com/sketch -->
    <title>Page 1</title>
    <desc>Created with Sketch.</desc>
    <defs>
        <path id="path-1" d="M0,0.646 L1417.493,0.646 L1417.493,835 L0,835 L0,0.646 Z"></path>
    </defs>
    <g id="Page-1" stroke="none" stroke-width="1" fill="none" fill-rule="evenodd" sketch:type="MSPage">
        <g id="Desktop-HD" sketch:type="MSArtboardGroup" transform="translate(-11.000000, -94.000000)">
            <g id="Page-1" sketch:type="MSLayerGroup" transform="translate(11.000000, 94.000000)">
                <path d="M105.0625,52.3682 C105.0625,67.1512 89.9145,80.5872 89.9145,80.5872 C89.9145,80.5872 74.7625,67.1512 74.7625,52.3682 C74.7625,44.0072 81.5475,35.5872 89.9145,35.5872 C98.2795,35.5872 105.0625,44.0072 105.0625,52.3682 L105.0625,52.3682 Z" id="Stroke-1" stroke="#FEFEFE" stroke-width="3" stroke-linecap="round" stroke-linejoin="round" sketch:type="MSShapeGroup"></path>
                <path d="M94.791,52.3682 C94.791,55.0672 92.609,57.2472 89.914,57.2472 C87.221,57.2472 85.037,55.0672 85.037,52.3682 C85.037,49.6792 87.221,47.4962 89.914,47.4962 C92.609,47.4962 94.791,49.6792 94.791,52.3682 L94.791,52.3682 Z" id="Stroke-3" stroke="#FEFEFE" stroke-width="3" stroke-linecap="round" stroke-linejoin="round" sketch:type="MSShapeGroup"></path>
                <path d="M91.4863,91.0371 C91.8283,91.9621 92.1993,92.8901 92.5973,93.8191" id="Stroke-5" stroke="#FEFEFE" stroke-width="3" stroke-linecap="round" stroke-linejoin="round" sketch:type="MSShapeGroup"></path>
                <path d="M96.1973,100.9707 C139.7793,176.5307 360.4573,256.5927 570.9923,105.8857 C790.7963,-51.4563 1090.3873,-18.8783 1083.5073,249.4057 C1076.9653,504.4987 1115.7913,673.3427 1408.9913,653.4667" id="Stroke-7" stroke="#FEFEFE" stroke-width="3" stroke-linecap="round" stroke-linejoin="round" stroke-dasharray="6.01,8.013999999999999" sketch:type="MSShapeGroup"></path>
                <path d="M1412.998,653.1846 C1413.993,653.1126 1414.992,653.0366 1415.993,652.9596" id="Stroke-9" stroke="#FEFEFE" stroke-width="3" stroke-linecap="round" stroke-linejoin="round" sketch:type="MSShapeGroup"></path>
                <path d="M1161.2773,833.5 C1161.2773,781.003 1092.6043,605.418 912.2903,635.658" id="Stroke-11" stroke="#FEFEFE" stroke-width="3" stroke-linecap="round" stroke-linejoin="round" stroke-dasharray="6,8" sketch:type="MSShapeGroup"></path>
                <mask id="mask-2" sketch:name="Clip 14" fill="white">
                    <use xlink:href="#path-1"></use>
                </mask>
                <g id="Clip-14"></g>
                <path d="M57.542,81.321 L6.352,81.321 L6.352,35.587 L57.542,35.587 L57.542,81.321 Z" id="Stroke-13" stroke="#FEFEFE" stroke-width="3" stroke-linecap="round" stroke-linejoin="round" sketch:type="MSShapeGroup" mask="url(#mask-2)"></path>
                <path d="M6.3516,44.1963 L57.5416,44.1963" id="Stroke-15" stroke="#FEFEFE" stroke-width="3" stroke-linecap="round" stroke-linejoin="round" sketch:type="MSShapeGroup" mask="url(#mask-2)"></path>
                <path d="M6.3516,51.0069 L57.5416,51.0069" id="Stroke-16" stroke="#FEFEFE" stroke-width="3" stroke-linecap="round" stroke-linejoin="round" sketch:type="MSShapeGroup" mask="url(#mask-2)"></path>
                <path d="M8.7041,51.0069 L15.3211,44.3019" id="Stroke-17" stroke="#FEFEFE" stroke-width="3" stroke-linecap="round" stroke-linejoin="round" sketch:type="MSShapeGroup" mask="url(#mask-2)"></path>
                <path d="M16.7617,51.0069 L23.3787,44.3019" id="Stroke-18" stroke="#FEFEFE" stroke-width="3" stroke-linecap="round" stroke-linejoin="round" sketch:type="MSShapeGroup" mask="url(#mask-2)"></path>
                <path d="M24.8193,51.0069 L31.4383,44.3019" id="Stroke-19" stroke="#FEFEFE" stroke-width="3" stroke-linecap="round" stroke-linejoin="round" sketch:type="MSShapeGroup" mask="url(#mask-2)"></path>
                <path d="M32.8779,51.0069 L39.4959,44.3019" id="Stroke-20" stroke="#FEFEFE" stroke-width="3" stroke-linecap="round" stroke-linejoin="round" sketch:type="MSShapeGroup" mask="url(#mask-2)"></path>
                <path d="M40.9355,51.0069 L47.5525,44.3019" id="Stroke-21" stroke="#FEFEFE" stroke-width="3" stroke-linecap="round" stroke-linejoin="round" sketch:type="MSShapeGroup" mask="url(#mask-2)"></path>
                <path d="M48.9941,51.0069 L55.6101,44.3019" id="Stroke-22" stroke="#FEFEFE" stroke-width="3" stroke-linecap="round" stroke-linejoin="round" sketch:type="MSShapeGroup" mask="url(#mask-2)"></path>
                <path d="M50.385,81.095 L35.964,81.095 L35.964,58.454 L50.385,58.454 L50.385,81.095 Z" id="Stroke-23" stroke="#FEFEFE" stroke-width="3" stroke-linecap="round" stroke-linejoin="round" sketch:type="MSShapeGroup" mask="url(#mask-2)"></path>
                <path d="M43.1738,58.4541 L43.1738,80.1501" id="Stroke-24" stroke="#FEFEFE" stroke-width="3" stroke-linecap="round" stroke-linejoin="round" sketch:type="MSShapeGroup" mask="url(#mask-2)"></path>
                <path d="M12.264,70.347 L29.15,70.347 L29.15,58.286 L12.264,58.286 L12.264,70.347 Z" id="Stroke-25" stroke="#FEFEFE" stroke-width="3" stroke-linecap="round" stroke-linejoin="round" sketch:type="MSShapeGroup" mask="url(#mask-2)"></path>
                <path d="M1.5,81.3213 L62.314,81.3213" id="Stroke-26" stroke="#FEFEFE" stroke-width="3" stroke-linecap="round" stroke-linejoin="round" sketch:type="MSShapeGroup" mask="url(#mask-2)"></path>
                <path d="M1.5,35.5869 L62.314,35.5869" id="Stroke-27" stroke="#FEFEFE" stroke-width="3" stroke-linecap="round" stroke-linejoin="round" sketch:type="MSShapeGroup" mask="url(#mask-2)"></path>
                <path d="M1265.352,465.413 L1214.162,465.413 L1214.162,419.679 L1265.352,419.679 L1265.352,465.413 Z" id="Stroke-28" stroke="#FEFEFE" stroke-width="3" stroke-linecap="round" stroke-linejoin="round" sketch:type="MSShapeGroup" mask="url(#mask-2)"></path>
                <path d="M1214.1611,428.2881 L1265.3511,428.2881" id="Stroke-29" stroke="#FEFEFE" stroke-width="3" stroke-linecap="round" stroke-linejoin="round" sketch:type="MSShapeGroup" mask="url(#mask-2)"></path>
                <path d="M1214.1611,435.0987 L1265.3511,435.0987" id="Stroke-30" stroke="#FEFEFE" stroke-width="3" stroke-linecap="round" stroke-linejoin="round" sketch:type="MSShapeGroup" mask="url(#mask-2)"></path>
                <path d="M1216.5137,435.0987 L1223.1307,428.3937" id="Stroke-31" stroke="#FEFEFE" stroke-width="3" stroke-linecap="round" stroke-linejoin="round" sketch:type="MSShapeGroup" mask="url(#mask-2)"></path>
                <path d="M1224.5713,435.0987 L1231.1883,428.3937" id="Stroke-32" stroke="#FEFEFE" stroke-width="3" stroke-linecap="round" stroke-linejoin="round" sketch:type="MSShapeGroup" mask="url(#mask-2)"></path>
                <path d="M1232.6289,435.0987 L1239.2479,428.3937" id="Stroke-33" stroke="#FEFEFE" stroke-width="3" stroke-linecap="round" stroke-linejoin="round" sketch:type="MSShapeGroup" mask="url(#mask-2)"></path>
                <path d="M1240.6875,435.0987 L1247.3055,428.3937" id="Stroke-34" stroke="#FEFEFE" stroke-width="3" stroke-linecap="round" stroke-linejoin="round" sketch:type="MSShapeGroup" mask="url(#mask-2)"></path>
                <path d="M1248.7451,435.0987 L1255.3621,428.3937" id="Stroke-35" stroke="#FEFEFE" stroke-width="3" stroke-linecap="round" stroke-linejoin="round" sketch:type="MSShapeGroup" mask="url(#mask-2)"></path>
                <path d="M1256.8037,435.0987 L1263.4197,428.3937" id="Stroke-36" stroke="#FEFEFE" stroke-width="3" stroke-linecap="round" stroke-linejoin="round" sketch:type="MSShapeGroup" mask="url(#mask-2)"></path>
                <path d="M1258.194,465.186 L1243.773,465.186 L1243.773,442.545 L1258.194,442.545 L1258.194,465.186 Z" id="Stroke-37" stroke="#FEFEFE" stroke-width="3" stroke-linecap="round" stroke-linejoin="round" sketch:type="MSShapeGroup" mask="url(#mask-2)"></path>
                <path d="M1250.9834,442.5459 L1250.9834,464.2419" id="Stroke-38" stroke="#FEFEFE" stroke-width="3" stroke-linecap="round" stroke-linejoin="round" sketch:type="MSShapeGroup" mask="url(#mask-2)"></path>
                <path d="M1220.073,454.439 L1236.959,454.439 L1236.959,442.378 L1220.073,442.378 L1220.073,454.439 Z" id="Stroke-39" stroke="#FEFEFE" stroke-width="3" stroke-linecap="round" stroke-linejoin="round" sketch:type="MSShapeGroup" mask="url(#mask-2)"></path>
                <path d="M1209.3096,465.4131 L1270.1236,465.4131" id="Stroke-40" stroke="#FEFEFE" stroke-width="3" stroke-linecap="round" stroke-linejoin="round" sketch:type="MSShapeGroup" mask="url(#mask-2)"></path>
                <path d="M1209.3096,419.6787 L1270.1236,419.6787" id="Stroke-41" stroke="#FEFEFE" stroke-width="3" stroke-linecap="round" stroke-linejoin="round" sketch:type="MSShapeGroup" mask="url(#mask-2)"></path>
                <path d="M1016.708,778.575 L965.518,778.575 L965.518,732.841 L1016.708,732.841 L1016.708,778.575 Z" id="Stroke-42" stroke="#FEFEFE" stroke-width="3" stroke-linecap="round" stroke-linejoin="round" sketch:type="MSShapeGroup" mask="url(#mask-2)"></path>
                <path d="M965.5176,741.4502 L1016.7076,741.4502" id="Stroke-43" stroke="#FEFEFE" stroke-width="3" stroke-linecap="round" stroke-linejoin="round" sketch:type="MSShapeGroup" mask="url(#mask-2)"></path>
                <path d="M965.5176,748.2608 L1016.7076,748.2608" id="Stroke-44" stroke="#FEFEFE" stroke-width="3" stroke-linecap="round" stroke-linejoin="round" sketch:type="MSShapeGroup" mask="url(#mask-2)"></path>
                <path d="M967.8701,748.2608 L974.4871,741.5558" id="Stroke-45" stroke="#FEFEFE" stroke-width="3" stroke-linecap="round" stroke-linejoin="round" sketch:type="MSShapeGroup" mask="url(#mask-2)"></path>
                <path d="M975.9277,748.2608 L982.5447,741.5558" id="Stroke-46" stroke="#FEFEFE" stroke-width="3" stroke-linecap="round" stroke-linejoin="round" sketch:type="MSShapeGroup" mask="url(#mask-2)"></path>
                <path d="M983.9854,748.2608 L990.6044,741.5558" id="Stroke-47" stroke="#FEFEFE" stroke-width="3" stroke-linecap="round" stroke-linejoin="round" sketch:type="MSShapeGroup" mask="url(#mask-2)"></path>
                <path d="M992.0439,748.2608 L998.6619,741.5558" id="Stroke-48" stroke="#FEFEFE" stroke-width="3" stroke-linecap="round" stroke-linejoin="round" sketch:type="MSShapeGroup" mask="url(#mask-2)"></path>
                <path d="M1000.1016,748.2608 L1006.7186,741.5558" id="Stroke-49" stroke="#FEFEFE" stroke-width="3" stroke-linecap="round" stroke-linejoin="round" sketch:type="MSShapeGroup" mask="url(#mask-2)"></path>
                <path d="M1008.1602,748.2608 L1014.7762,741.5558" id="Stroke-50" stroke="#FEFEFE" stroke-width="3" stroke-linecap="round" stroke-linejoin="round" sketch:type="MSShapeGroup" mask="url(#mask-2)"></path>
                <path d="M1009.551,778.349 L995.13,778.349 L995.13,755.708 L1009.551,755.708 L1009.551,778.349 Z" id="Stroke-51" stroke="#FEFEFE" stroke-width="3" stroke-linecap="round" stroke-linejoin="round" sketch:type="MSShapeGroup" mask="url(#mask-2)"></path>
                <path d="M1002.3398,755.708 L1002.3398,777.404" id="Stroke-52" stroke="#FEFEFE" stroke-width="3" stroke-linecap="round" stroke-linejoin="round" sketch:type="MSShapeGroup" mask="url(#mask-2)"></path>
                <path d="M971.43,767.601 L988.316,767.601 L988.316,755.539 L971.43,755.539 L971.43,767.601 Z" id="Stroke-53" stroke="#FEFEFE" stroke-width="3" stroke-linecap="round" stroke-linejoin="round" sketch:type="MSShapeGroup" mask="url(#mask-2)"></path>
                <path d="M960.666,778.5752 L1021.481,778.5752" id="Stroke-54" stroke="#FEFEFE" stroke-width="3" stroke-linecap="round" stroke-linejoin="round" sketch:type="MSShapeGroup" mask="url(#mask-2)"></path>
                <path d="M960.666,732.8408 L1021.481,732.8408" id="Stroke-55" stroke="#FEFEFE" stroke-width="3" stroke-linecap="round" stroke-linejoin="round" sketch:type="MSShapeGroup" mask="url(#mask-2)"></path>
                <path d="M902.2461,623.6797 L886.1621,608.9807 L870.0791,623.6797 L870.0791,655.3837 L902.2461,655.3837 L902.2461,623.6797 L902.2461,623.6797 Z" id="Stroke-56" stroke="#FEFEFE" stroke-width="3" stroke-linecap="round" stroke-linejoin="round" sketch:type="MSShapeGroup" mask="url(#mask-2)"></path>
                <path d="M865.5479,655.3838 L906.7769,655.3838" id="Stroke-57" stroke="#FEFEFE" stroke-width="3" stroke-linecap="round" stroke-linejoin="round" sketch:type="MSShapeGroup" mask="url(#mask-2)"></path>
                <path d="M881.2461,655.1572 L881.2461,642.7392 C881.2461,640.0232 883.4471,637.8222 886.1631,637.8222 C888.8781,637.8222 891.0791,640.0232 891.0791,642.7392 L891.0791,655.1572" id="Stroke-58" stroke="#FEFEFE" stroke-width="3" stroke-linecap="round" stroke-linejoin="round" sketch:type="MSShapeGroup" mask="url(#mask-2)"></path>
                <path d="M965.2324,27.4297 C965.2324,38.4627 956.2874,47.4077 945.2534,47.4077 C934.2204,47.4077 925.2774,38.4627 925.2774,27.4297 C925.2774,16.3967 934.2204,7.4527 945.2534,7.4527 C956.2874,7.4527 965.2324,16.3967 965.2324,27.4297" id="Fill-59" fill="#881A64" sketch:type="MSShapeGroup" mask="url(#mask-2)"></path>
                <path d="M1089.4492,285.1377 C1099.9622,288.4867 1105.7692,299.7247 1102.4212,310.2377 C1099.0722,320.7497 1087.8362,326.5577 1077.3232,323.2087 C1066.8102,319.8607 1061.0022,308.6237 1064.3502,298.1117 C1067.6992,287.5987 1078.9362,281.7897 1089.4492,285.1377" id="Fill-60" fill="#881A64" sketch:type="MSShapeGroup" mask="url(#mask-2)"></path>
                <path d="M1100.626,382.9688 C1095.052,392.4898 1082.814,395.6898 1073.292,390.1148 C1063.771,384.5408 1060.57,372.3038 1066.146,362.7818 C1071.72,353.2608 1083.956,350.0608 1093.478,355.6338 C1102.999,361.2088 1106.2,373.4468 1100.626,382.9688" id="Fill-61" fill="#881A64" sketch:type="MSShapeGroup" mask="url(#mask-2)"></path>
                <path d="M955.9805,4.5225 L949.6355,13.1095 C949.1345,13.8915 948.5925,14.0995 947.9365,13.9515 C945.3305,13.4085 942.5255,14.3725 940.8315,16.6505 C940.8225,16.6645 940.8135,16.6755 940.8035,16.6885 L940.8025,16.6885 L924.6645,38.3875 C924.1145,39.1285 924.2665,40.1765 925.0075,40.7285 L934.9415,48.1165 C935.6835,48.6685 936.7315,48.5125 937.2835,47.7715 L953.4205,26.0735 L953.4205,26.0715 C953.4305,26.0595 953.4395,26.0475 953.4495,26.0345 C955.2025,23.6775 955.2655,20.5905 953.8565,18.2145 C953.6635,17.6965 953.8725,17.2025 954.3625,16.5435 L960.6655,8.0075" id="Stroke-62" stroke="#E7E7E6" stroke-width="2.5" stroke-linecap="round" stroke-linejoin="round" sketch:type="MSShapeGroup" mask="url(#mask-2)"></path>
                <path d="M962.3457,5.7471 L962.3437,5.7461 C962.6977,5.2731 962.5637,4.6451 962.0937,4.2961 L959.1997,2.1441 C958.7287,1.7931 958.0217,1.7961 957.6707,2.2701 L957.6677,2.2721 L955.9897,4.5291 L960.6647,8.0071 L962.3457,5.7471 L962.3457,5.7471 Z" id="Stroke-63" stroke="#E7E7E6" stroke-width="2.5" stroke-linecap="round" stroke-linejoin="round" sketch:type="MSShapeGroup" mask="url(#mask-2)"></path>
                <path d="M939.9609,30.1983 L946.6239,35.1523 L952.2269,27.6203 L945.5649,22.6653 L939.9609,30.1983 L939.9609,30.1983 Z" id="Stroke-64" stroke="#E7E7E6" stroke-width="2.5" stroke-linecap="round" stroke-linejoin="round" sketch:type="MSShapeGroup" mask="url(#mask-2)"></path>
                <path d="M925.2764,40.9278 L934.6344,47.8888 C934.4114,46.2328 933.0974,44.1428 931.4584,42.9208 C929.8184,41.7008 926.9274,40.6658 925.2764,40.9278 L925.2764,40.9278 Z" id="Stroke-65" stroke="#E7E7E6" stroke-width="2.5" stroke-linecap="round" stroke-linejoin="round" sketch:type="MSShapeGroup" mask="url(#mask-2)"></path>
                <path d="M1062.2334,289.3672 L1070.6494,295.9372 C1071.4184,296.4592 1071.6124,297.0062 1071.4464,297.6582 C1070.8344,300.2502 1071.7234,303.0792 1073.9564,304.8322 C1073.9694,304.8422 1073.9804,304.8502 1073.9944,304.8612 L1095.2574,321.5682 C1095.9854,322.1382 1097.0364,322.0132 1097.6074,321.2862 L1105.2544,311.5522 C1105.8264,310.8252 1105.6984,309.7742 1104.9724,309.2022 L1083.7094,292.4972 L1083.7074,292.4972 C1083.6964,292.4862 1083.6844,292.4762 1083.6704,292.4682 C1081.3614,290.6522 1078.2774,290.5072 1075.8644,291.8522 C1075.3414,292.0332 1074.8524,291.8092 1074.2084,291.3042 L1065.8404,284.7762" id="Stroke-66" stroke="#E7E7E6" stroke-width="2.5" stroke-linecap="round" stroke-linejoin="round" sketch:type="MSShapeGroup" mask="url(#mask-2)"></path>
                <path d="M1063.626,283.0362 L1063.624,283.0392 C1063.161,282.6732 1062.53,282.7902 1062.169,283.2512 L1059.94,286.0882 C1059.577,286.5482 1059.562,287.2562 1060.026,287.6192 L1060.028,287.6222 L1062.239,289.3592 L1065.841,284.7762 L1063.626,283.0362 L1063.626,283.0362 Z" id="Stroke-67" stroke="#E7E7E6" stroke-width="2.5" stroke-linecap="round" stroke-linejoin="round" sketch:type="MSShapeGroup" mask="url(#mask-2)"></path>
                <path d="M1087.4766,306.0606 L1092.6046,299.5316 L1085.2236,293.7316 L1080.0946,300.2596 L1087.4766,306.0606 L1087.4766,306.0606 Z" id="Stroke-68" stroke="#E7E7E6" stroke-width="2.5" stroke-linecap="round" stroke-linejoin="round" sketch:type="MSShapeGroup" mask="url(#mask-2)"></path>
                <path d="M1097.8135,321.0235 L1105.0195,311.8525 C1103.3575,312.0325 1101.2335,313.2905 1099.9695,314.8975 C1098.7075,316.5035 1097.5965,319.3665 1097.8135,321.0235 L1097.8135,321.0235 Z" id="Stroke-69" stroke="#E7E7E6" stroke-width="2.5" stroke-linecap="round" stroke-linejoin="round" sketch:type="MSShapeGroup" mask="url(#mask-2)"></path>
                <path d="M1103.1357,351.6582 L1094.8777,358.4272 C1094.1997,359.0612 1093.6237,359.1322 1093.0247,358.8272 C1090.6297,357.6602 1087.6747,357.9072 1085.4747,359.7002 C1085.4617,359.7122 1085.4507,359.7212 1085.4387,359.7312 L1064.4717,376.8092 C1063.7557,377.3942 1063.6477,378.4472 1064.2317,379.1642 L1072.0497,388.7612 C1072.6327,389.4782 1073.6867,389.5842 1074.4037,389.0022 L1095.3677,371.9232 L1095.3677,371.9212 C1095.3817,371.9132 1095.3937,371.9032 1095.4057,371.8912 C1097.6837,370.0372 1098.5027,367.0602 1097.7187,364.4112 C1097.6567,363.8622 1097.9837,363.4322 1098.6177,362.9152 L1106.8237,356.1842" id="Stroke-70" stroke="#E7E7E6" stroke-width="2.5" stroke-linecap="round" stroke-linejoin="round" sketch:type="MSShapeGroup" mask="url(#mask-2)"></path>
                <path d="M1109.0068,354.4063 L1109.0038,354.4033 C1109.4628,354.0323 1109.4868,353.3913 1109.1158,352.9373 L1106.8378,350.1403 C1106.4688,349.6843 1105.7818,349.5143 1105.3248,349.8873 L1105.3218,349.8893 L1103.1418,351.6653 L1106.8228,356.1843 L1109.0068,354.4063 L1109.0068,354.4063 Z" id="Stroke-71" stroke="#E7E7E6" stroke-width="2.5" stroke-linecap="round" stroke-linejoin="round" sketch:type="MSShapeGroup" mask="url(#mask-2)"></path>
                <path d="M1081.3096,372.6221 L1086.5536,379.0571 L1093.8316,373.1301 L1088.5886,366.6931 L1081.3096,372.6221 L1081.3096,372.6221 Z" id="Stroke-72" stroke="#E7E7E6" stroke-width="2.5" stroke-linecap="round" stroke-linejoin="round" sketch:type="MSShapeGroup" mask="url(#mask-2)"></path>
                <path d="M1064.4424,379.4229 L1071.8074,388.4659 C1071.9974,386.8049 1071.2364,384.4559 1069.9454,382.8709 C1068.6554,381.2859 1066.1064,379.5749 1064.4424,379.4229 L1064.4424,379.4229 Z" id="Stroke-73" stroke="#E7E7E6" stroke-width="2.5" stroke-linecap="round" stroke-linejoin="round" sketch:type="MSShapeGroup" mask="url(#mask-2)"></path>
            </g>
        </g>
    </g>
</svg>