<?xml version="1.0" encoding="UTF-8" standalone="no"?>
<svg id="chemin" width="1415px" height="835px">
    <g stroke="none" stroke-width="1" fill="none" fill-rule="evenodd" sketch:type="MSPage">
        <g sketch:type="MSArtboardGroup" transform="translate(-22.000000, -189.000000)">
            <g id="all" sketch:type="MSLayerGroup" transform="translate(23.000000, 190.000000)">
                <g id="icon-geoloc" transform="translate(73.000000, 34.000000)" stroke="#FEFEFE" stroke-width="3" sketch:type="MSShapeGroup" stroke-linecap="round" stroke-linejoin="round">
                    <path d="M31.0625,17.3682 C31.0625,32.1512 15.9145,45.5872 15.9145,45.5872 C15.9145,45.5872 0.7625,32.1512 0.7625,17.3682 C0.7625,9.0072 7.5475,0.5872 15.9145,0.5872 C24.2795,0.5872 31.0625,9.0072 31.0625,17.3682 L31.0625,17.3682 Z" id="Stroke-1"></path>
                    <path d="M20.791,17.3682 C20.791,20.0672 18.609,22.2472 15.914,22.2472 C13.221,22.2472 11.037,20.0672 11.037,17.3682 C11.037,14.6792 13.221,12.4962 15.914,12.4962 C18.609,12.4962 20.791,14.6792 20.791,17.3682 L20.791,17.3682 Z" id="Stroke-3"></path>
                </g>
                <path d="M89.960444,90.2639871 C133.542444,165.823987 359.4573,255.5927 569.9923,104.8857 C789.7963,-52.4563 1089.3873,-19.8783 1082.5073,248.4057 C1075.9653,503.4987 1114.7913,672.3427 1407.9913,652.4667 L1418.34918,650.452665" id="big-chemin" stroke="#FEFEFE" stroke-width="3" stroke-linecap="round" stroke-linejoin="round" stroke-dasharray="6.01,8.013999999999999" sketch:type="MSShapeGroup"></path>
                <path d="M1160.2773,832.5 C1160.2773,780.003 1091.6043,604.418 911.2903,634.658" id="mini-chemin" stroke="#FEFEFE" stroke-width="3" stroke-linecap="round" stroke-linejoin="round" stroke-dasharray="6,8" sketch:type="MSShapeGroup"></path>
                <g id="icon-shop-3" transform="translate(0.000000, 34.000000)" stroke="#FEFEFE" stroke-width="3" sketch:type="MSShapeGroup" stroke-linecap="round" stroke-linejoin="round">
                    <path d="M56.542,46.321 L5.352,46.321 L5.352,0.587 L56.542,0.587 L56.542,46.321 Z" id="Stroke-13"></path>
                    <path d="M5.3516,9.1963 L56.5416,9.1963" id="Stroke-15"></path>
                    <path d="M5.3516,16.0069 L56.5416,16.0069" id="Stroke-16"></path>
                    <path d="M7.7041,16.0069 L14.3211,9.3019" id="Stroke-17"></path>
                    <path d="M15.7617,16.0069 L22.3787,9.3019" id="Stroke-18"></path>
                    <path d="M23.8193,16.0069 L30.4383,9.3019" id="Stroke-19"></path>
                    <path d="M31.8779,16.0069 L38.4959,9.3019" id="Stroke-20"></path>
                    <path d="M39.9355,16.0069 L46.5525,9.3019" id="Stroke-21"></path>
                    <path d="M47.9941,16.0069 L54.6101,9.3019" id="Stroke-22"></path>
                    <path d="M49.385,46.095 L34.964,46.095 L34.964,23.454 L49.385,23.454 L49.385,46.095 Z" id="Stroke-23"></path>
                    <path d="M42.1738,23.4541 L42.1738,45.1501" id="Stroke-24"></path>
                    <path d="M11.264,35.347 L28.15,35.347 L28.15,23.286 L11.264,23.286 L11.264,35.347 Z" id="Stroke-25"></path>
                    <path d="M0.5,46.3213 L61.314,46.3213" id="Stroke-26"></path>
                    <path d="M0.5,0.5869 L61.314,0.5869" id="Stroke-27"></path>
                </g>
                <g id="icon-shop-2" transform="translate(1208.000000, 418.000000)" stroke="#FEFEFE" stroke-width="3" sketch:type="MSShapeGroup" stroke-linecap="round" stroke-linejoin="round">
                    <path d="M56.352,46.413 L5.162,46.413 L5.162,0.679 L56.352,0.679 L56.352,46.413 Z" id="Stroke-28"></path>
                    <path d="M5.1611,9.2881 L56.3511,9.2881" id="Stroke-29"></path>
                    <path d="M5.1611,16.0987 L56.3511,16.0987" id="Stroke-30"></path>
                    <path d="M7.5137,16.0987 L14.1307,9.3937" id="Stroke-31"></path>
                    <path d="M15.5713,16.0987 L22.1883,9.3937" id="Stroke-32"></path>
                    <path d="M23.6289,16.0987 L30.2479,9.3937" id="Stroke-33"></path>
                    <path d="M31.6875,16.0987 L38.3055,9.3937" id="Stroke-34"></path>
                    <path d="M39.7451,16.0987 L46.3621,9.3937" id="Stroke-35"></path>
                    <path d="M47.8037,16.0987 L54.4197,9.3937" id="Stroke-36"></path>
                    <path d="M49.194,46.186 L34.773,46.186 L34.773,23.545 L49.194,23.545 L49.194,46.186 Z" id="Stroke-37"></path>
                    <path d="M41.9834,23.5459 L41.9834,45.2419" id="Stroke-38"></path>
                    <path d="M11.073,35.439 L27.959,35.439 L27.959,23.378 L11.073,23.378 L11.073,35.439 Z" id="Stroke-39"></path>
                    <path d="M0.3096,46.4131 L61.1236,46.4131" id="Stroke-40"></path>
                    <path d="M0.3096,0.6787 L61.1236,0.6787" id="Stroke-41"></path>
                </g>
                <g id="icon-shop-1" transform="translate(959.000000, 731.000000)" stroke="#FEFEFE" stroke-width="3" sketch:type="MSShapeGroup" stroke-linecap="round" stroke-linejoin="round">
                    <path d="M56.708,46.575 L5.518,46.575 L5.518,0.841 L56.708,0.841 L56.708,46.575 Z" id="Stroke-42"></path>
                    <path d="M5.5176,9.4502 L56.7076,9.4502" id="Stroke-43"></path>
                    <path d="M5.5176,16.2608 L56.7076,16.2608" id="Stroke-44"></path>
                    <path d="M7.8701,16.2608 L14.4871,9.5558" id="Stroke-45"></path>
                    <path d="M15.9277,16.2608 L22.5447,9.5558" id="Stroke-46"></path>
                    <path d="M23.9854,16.2608 L30.6044,9.5558" id="Stroke-47"></path>
                    <path d="M32.0439,16.2608 L38.6619,9.5558" id="Stroke-48"></path>
                    <path d="M40.1016,16.2608 L46.7186,9.5558" id="Stroke-49"></path>
                    <path d="M48.1602,16.2608 L54.7762,9.5558" id="Stroke-50"></path>
                    <path d="M49.551,46.349 L35.13,46.349 L35.13,23.708 L49.551,23.708 L49.551,46.349 Z" id="Stroke-51"></path>
                    <path d="M42.3398,23.708 L42.3398,45.404" id="Stroke-52"></path>
                    <path d="M11.43,35.601 L28.316,35.601 L28.316,23.539 L11.43,23.539 L11.43,35.601 Z" id="Stroke-53"></path>
                    <path d="M0.666,46.5752 L61.481,46.5752" id="Stroke-54"></path>
                    <path d="M0.666,0.8408 L61.481,0.8408" id="Stroke-55"></path>
                </g>
                <g id="icon-house" transform="translate(864.000000, 607.000000)" stroke="#FEFEFE" stroke-width="3" sketch:type="MSShapeGroup" stroke-linecap="round" stroke-linejoin="round">
                    <path d="M37.2461,15.6797 L21.1621,0.9807 L5.0791,15.6797 L5.0791,47.3837 L37.2461,47.3837 L37.2461,15.6797 L37.2461,15.6797 Z" id="Stroke-56"></path>
                    <path d="M0.5479,47.3838 L41.7769,47.3838" id="Stroke-57"></path>
                    <path d="M16.2461,47.1572 L16.2461,34.7392 C16.2461,32.0232 18.4471,29.8222 21.1631,29.8222 C23.8781,29.8222 26.0791,32.0232 26.0791,34.7392 L26.0791,47.1572" id="Stroke-58"></path>
                </g>
                <g id="icon-bottle-3" transform="translate(923.000000, 0.000000)" sketch:type="MSShapeGroup">
                    <path d="M41.2324,26.4297 C41.2324,37.4627 32.2874,46.4077 21.2534,46.4077 C10.2204,46.4077 1.2774,37.4627 1.2774,26.4297 C1.2774,15.3967 10.2204,6.4527 21.2534,6.4527 C32.2874,6.4527 41.2324,15.3967 41.2324,26.4297" id="Fill-59" fill="#881A64"></path>
                    <path d="M31.9805,3.5225 L25.6355,12.1095 C25.1345,12.8915 24.5925,13.0995 23.9365,12.9515 C21.3305,12.4085 18.5255,13.3725 16.8315,15.6505 C16.8225,15.6645 16.8135,15.6755 16.8035,15.6885 L16.8025,15.6885 L0.6645,37.3875 C0.1145,38.1285 0.2665,39.1765 1.0075,39.7285 L10.9415,47.1165 C11.6835,47.6685 12.7315,47.5125 13.2835,46.7715 L29.4205,25.0735 L29.4205,25.0715 C29.4305,25.0595 29.4395,25.0475 29.4495,25.0345 C31.2025,22.6775 31.2655,19.5905 29.8565,17.2145 C29.6635,16.6965 29.8725,16.2025 30.3625,15.5435 L36.6655,7.0075" id="Stroke-62" stroke="#E7E7E6" stroke-width="2.5" stroke-linecap="round" stroke-linejoin="round"></path>
                    <path d="M38.3457,4.7471 L38.3437,4.7461 C38.6977,4.2731 38.5637,3.6451 38.0937,3.2961 L35.1997,1.1441 C34.7287,0.7931 34.0217,0.7961 33.6707,1.2701 L33.6677,1.2721 L31.9897,3.5291 L36.6647,7.0071 L38.3457,4.7471 L38.3457,4.7471 Z" id="Stroke-63" stroke="#E7E7E6" stroke-width="2.5" stroke-linecap="round" stroke-linejoin="round"></path>
                    <path d="M15.9609,29.1983 L22.6239,34.1523 L28.2269,26.6203 L21.5649,21.6653 L15.9609,29.1983 L15.9609,29.1983 Z" id="Stroke-64" stroke="#E7E7E6" stroke-width="2.5" stroke-linecap="round" stroke-linejoin="round"></path>
                    <path d="M1.2764,39.9278 L10.6344,46.8888 C10.4114,45.2328 9.0974,43.1428 7.4584,41.9208 C5.8184,40.7008 2.9274,39.6658 1.2764,39.9278 L1.2764,39.9278 Z" id="Stroke-65" stroke="#E7E7E6" stroke-width="2.5" stroke-linecap="round" stroke-linejoin="round"></path>
                </g>
                <g id="icon-bottle-2" transform="translate(1058.000000, 281.000000)" sketch:type="MSShapeGroup">
                    <path d="M30.4492,3.1377 C40.9622,6.4867 46.7692,17.7247 43.4212,28.2377 C40.0722,38.7497 28.8362,44.5577 18.3232,41.2087 C7.8102,37.8607 2.0022,26.6237 5.3502,16.1117 C8.6992,5.5987 19.9362,-0.2103 30.4492,3.1377" id="Fill-60" fill="#881A64"></path>
                    <path d="M3.2334,7.3672 L11.6494,13.9372 C12.4184,14.4592 12.6124,15.0062 12.4464,15.6582 C11.8344,18.2502 12.7234,21.0792 14.9564,22.8322 C14.9694,22.8422 14.9804,22.8502 14.9944,22.8612 L36.2574,39.5682 C36.9854,40.1382 38.0364,40.0132 38.6074,39.2862 L46.2544,29.5522 C46.8264,28.8252 46.6984,27.7742 45.9724,27.2022 L24.7094,10.4972 L24.7074,10.4972 C24.6964,10.4862 24.6844,10.4762 24.6704,10.4682 C22.3614,8.6522 19.2774,8.5072 16.8644,9.8522 C16.3414,10.0332 15.8524,9.8092 15.2084,9.3042 L6.8404,2.7762" id="Stroke-66" stroke="#E7E7E6" stroke-width="2.5" stroke-linecap="round" stroke-linejoin="round"></path>
                    <path d="M4.626,1.0362 L4.624,1.0392 C4.161,0.6732 3.53,0.7902 3.169,1.2512 L0.94,4.0882 C0.577,4.5482 0.562,5.2562 1.026,5.6192 L1.028,5.6222 L3.239,7.3592 L6.841,2.7762 L4.626,1.0362 L4.626,1.0362 Z" id="Stroke-67" stroke="#E7E7E6" stroke-width="2.5" stroke-linecap="round" stroke-linejoin="round"></path>
                    <path d="M28.4766,24.0606 L33.6046,17.5316 L26.2236,11.7316 L21.0946,18.2596 L28.4766,24.0606 L28.4766,24.0606 Z" id="Stroke-68" stroke="#E7E7E6" stroke-width="2.5" stroke-linecap="round" stroke-linejoin="round"></path>
                    <path d="M38.8135,39.0235 L46.0195,29.8525 C44.3575,30.0325 42.2335,31.2905 40.9695,32.8975 C39.7075,34.5035 38.5965,37.3665 38.8135,39.0235 L38.8135,39.0235 Z" id="Stroke-69" stroke="#E7E7E6" stroke-width="2.5" stroke-linecap="round" stroke-linejoin="round"></path>
                </g>
                <g id="icon-bottle-1" transform="translate(1062.000000, 348.000000)" sketch:type="MSShapeGroup">
                    <path d="M37.626,33.9688 C32.052,43.4898 19.814,46.6898 10.292,41.1148 C0.771,35.5408 -2.43,23.3038 3.146,13.7818 C8.72,4.2608 20.956,1.0608 30.478,6.6338 C39.999,12.2088 43.2,24.4468 37.626,33.9688" id="Fill-61" fill="#881A64"></path>
                    <path d="M40.1357,2.6582 L31.8777,9.4272 C31.1997,10.0612 30.6237,10.1322 30.0247,9.8272 C27.6297,8.6602 24.6747,8.9072 22.4747,10.7002 C22.4617,10.7122 22.4507,10.7212 22.4387,10.7312 L1.4717,27.8092 C0.7557,28.3942 0.6477,29.4472 1.2317,30.1642 L9.0497,39.7612 C9.6327,40.4782 10.6867,40.5842 11.4037,40.0022 L32.3677,22.9232 L32.3677,22.9212 C32.3817,22.9132 32.3937,22.9032 32.4057,22.8912 C34.6837,21.0372 35.5027,18.0602 34.7187,15.4112 C34.6567,14.8622 34.9837,14.4322 35.6177,13.9152 L43.8237,7.1842" id="Stroke-70" stroke="#E7E7E6" stroke-width="2.5" stroke-linecap="round" stroke-linejoin="round"></path>
                    <path d="M46.0068,5.4063 L46.0038,5.4033 C46.4628,5.0323 46.4868,4.3913 46.1158,3.9373 L43.8378,1.1403 C43.4688,0.6843 42.7818,0.5143 42.3248,0.8873 L42.3218,0.8893 L40.1418,2.6653 L43.8228,7.1843 L46.0068,5.4063 L46.0068,5.4063 Z" id="Stroke-71" stroke="#E7E7E6" stroke-width="2.5" stroke-linecap="round" stroke-linejoin="round"></path>
                    <path d="M18.3096,23.6221 L23.5536,30.0571 L30.8316,24.1301 L25.5886,17.6931 L18.3096,23.6221 L18.3096,23.6221 Z" id="Stroke-72" stroke="#E7E7E6" stroke-width="2.5" stroke-linecap="round" stroke-linejoin="round"></path>
                    <path d="M1.4424,30.4229 L8.8074,39.4659 C8.9974,37.8049 8.2364,35.4559 6.9454,33.8709 C5.6554,32.2859 3.1064,30.5749 1.4424,30.4229 L1.4424,30.4229 Z" id="Stroke-73" stroke="#E7E7E6" stroke-width="2.5" stroke-linecap="round" stroke-linejoin="round"></path>
                </g>
            </g>
        </g>
    </g>
</svg>
