<svg id="city" width="1440px" height="362px" viewBox="0 0 1440 362" version="1.1" xmlns="http://www.w3.org/2000/svg" xmlns:xlink="http://www.w3.org/1999/xlink" xmlns:sketch="http://www.bohemiancoding.com/sketch/ns">
    <g id="Page-1" stroke="none" stroke-width="1" fill="none" fill-rule="evenodd" sketch:type="MSPage">
        <g id="Desktop-HD" sketch:type="MSArtboardGroup" transform="translate(0.000000, -634.000000)">
            <g id="Page-1" sketch:type="MSLayerGroup" transform="translate(-257.000000, 27.000000)">
                <g id="city" transform="translate(0.000000, 607.000000)" sketch:type="MSShapeGroup">
                    <path d="M976.051,362 L1773.901,362 L1773.901,331.035 L976.051,331.035 L976.051,362 Z" id="Fill-1" fill="#EA527D"></path>
                    <path d="M1208.9727,195.5449 C1200.8967,195.5449 1194.4727,202.0939 1194.4727,210.1659 L1194.4727,288.3129 L1223.4727,288.3129 L1223.4727,210.1659 C1223.4727,202.0939 1217.0487,195.5449 1208.9727,195.5449" id="Fill-3" fill="#EA527D"></path>
                    <path d="M1288.162,290.369 L1193.414,290.369 L1193.414,232.386 L1288.162,232.386 L1288.162,290.369 Z" id="Fill-4" fill="#EA527D"></path>
                    <path d="M1259.564,290.369 L1164.813,290.369 L1164.813,270.643 L1259.564,270.643 L1259.564,290.369 Z" id="Fill-5" fill="#EA527D"></path>
                    <path d="M1243.52,331.964 L1148.77,331.964 L1148.77,296.506 L1243.52,296.506 L1243.52,331.964 Z" id="Fill-6" fill="#EA527D"></path>
                    <path d="M1277.659,272.129 L1182.914,272.129 L1182.914,250.123 L1277.659,250.123 L1277.659,272.129 Z" id="Fill-7" fill="#EA527D"></path>
                    <path d="M1306.771,193.859 L1293.931,193.859 L1293.931,183.599 L1306.771,183.599 L1306.771,193.859 Z" id="Fill-8" fill="#EA527D"></path>
                    <path d="M1307.2725,183.5996 L1293.4295,183.5996 C1292.4255,183.5996 1291.6055,182.7756 1291.6055,181.7716 L1291.6055,179.9106 C1291.6055,178.9066 1292.4255,178.0836 1293.4295,178.0836 L1307.2725,178.0836 C1308.2785,178.0836 1309.0975,178.9066 1309.0975,179.9106 L1309.0975,181.7716 C1309.0975,182.7756 1308.2785,183.5996 1307.2725,183.5996" id="Fill-9" fill="#EA527D"></path>
                    <path d="M1303.8204,211.5791 L1297.4254,211.5791 L1297.4254,197.5061 C1297.4254,195.5011 1298.6174,193.8591 1300.6234,193.8591 C1302.6294,193.8591 1303.8204,195.5011 1303.8204,197.5061 L1303.8204,211.5791 Z M1308.8434,211.5791 L1305.1894,211.5791 L1305.1894,195.8621 C1305.1894,194.7611 1305.9154,193.8591 1307.0154,193.8591 C1308.1184,193.8591 1308.8434,194.7611 1308.8434,195.8621 L1308.8434,211.5791 Z M1296.0554,211.5791 L1292.4024,211.5791 L1292.4024,195.8621 C1292.4024,194.7611 1293.1274,193.8591 1294.2284,193.8591 C1295.3304,193.8591 1296.0554,194.7611 1296.0554,195.8621 L1296.0554,211.5791 Z M1287.8364,290.1291 L1313.4094,290.1291 L1313.4094,190.5711 L1287.8364,190.5711 L1287.8364,290.1291 Z" id="Fill-10" fill="#EA527D"></path>
                    <path d="M1306.0372,166.7178 L1294.6682,166.7178 C1293.8012,166.7178 1293.0952,166.0068 1293.0952,165.1438 L1293.0952,163.5368 C1293.0952,162.6698 1293.8012,161.9618 1294.6682,161.9618 L1306.0372,161.9618 C1306.9022,161.9618 1307.6132,162.6698 1307.6132,163.5368 L1307.6132,165.1438 C1307.6132,166.0068 1306.9022,166.7178 1306.0372,166.7178" id="Fill-11" fill="#EA527D"></path>
                    <path d="M1301.1993,155.4639 L1299.4533,155.4639 C1298.5093,155.4639 1297.7393,154.6919 1297.7393,153.7539 L1297.7393,127.6619 C1297.7393,126.7209 1298.5093,125.9489 1299.4533,125.9489 L1301.1993,125.9489 C1302.1403,125.9489 1302.9103,126.7209 1302.9103,127.6619 L1302.9103,153.7539 C1302.9103,154.6919 1302.1403,155.4639 1301.1993,155.4639" id="Fill-12" fill="#EA527D"></path>
                    <path d="M1208.5079,221.9258 L1207.5619,221.9258 C1207.0529,221.9258 1206.6369,221.5068 1206.6369,220.9968 L1206.6369,193.3408 C1206.6369,192.8308 1207.0529,192.4108 1207.5619,192.4108 L1208.5079,192.4108 C1209.0199,192.4108 1209.4379,192.8308 1209.4379,193.3408 L1209.4379,220.9968 C1209.4379,221.5068 1209.0199,221.9258 1208.5079,221.9258" id="Fill-13" fill="#EA527D"></path>
                    <path d="M1305.4727,155.3125 L1305.4727,157.4045 C1303.4727,157.4045 1303.4727,161.9615 1305.4727,161.9615 L1305.4727,165.3125 L1299.6057,165.3125 L1299.4377,165.3125 L1294.4727,165.3125 L1294.4727,161.9615 C1296.4727,161.9615 1296.4727,157.4045 1294.4727,157.4045 L1294.4727,155.3125" id="Fill-14" fill="#EA527D"></path>
                    <path d="M1306.254,182.392 L1294.452,182.392 L1294.452,165.375 L1306.254,165.375 L1306.254,182.392 Z" id="Fill-15" fill="#EA527D"></path>
                    <path d="M1291.04,192.14 L1287.836,192.14 L1287.836,184.869 L1291.04,184.869 L1291.04,192.14 Z" id="Fill-16" fill="#EA527D"></path>
                    <path d="M1313.409,192.14 L1310.206,192.14 L1310.206,184.869 L1313.409,184.869 L1313.409,192.14 Z" id="Fill-17" fill="#EA527D"></path>
                    <path d="M1208.371,195.545 L1207.699,195.545 L1207.699,181.479 L1208.371,181.479 L1208.371,195.545 Z" id="Fill-18" fill="#EA527D"></path>
                    <path d="M1330.9161,331.9639 L1152.5411,331.9639 L1152.5411,289.4709 L1326.7171,289.4709 L1330.9161,331.9639 Z" id="Fill-19" fill="#EA527D"></path>
                    <path d="M1321.277,290.369 L1312.05,290.369 L1312.05,281.387 L1321.277,281.387 L1321.277,290.369 Z" id="Fill-20" fill="#EA527D"></path>
                    <path d="M1338.5127,331.9639 L1325.9077,331.9639 L1325.9077,295.9339 L1334.4707,295.9339 L1338.5127,295.9339 L1338.5127,331.9639 Z" id="Fill-21" fill="#EA527D"></path>
                    <path d="M1334.1504,290.8438 L1337.4734,288.2998 L1340.4724,290.9238 L1340.4724,300.4568 L1338.5224,304.4958 C1338.5224,304.4958 1333.6704,304.9818 1334.1524,304.4958 C1334.6404,304.0128 1334.1504,290.8438 1334.1504,290.8438" id="Fill-22" fill="#EA527D"></path>
                    <path d="M1349.984,308.535 L1337.283,308.535 L1337.283,305.467 L1349.984,305.467 L1349.984,308.535 Z" id="Fill-23" fill="#EA527D"></path>
                    <path d="M1349.1748,303.8506 L1367.5958,314.6696 L1367.5958,331.9636 L1349.1748,331.9636 L1349.1748,303.8506 Z" id="Fill-24" fill="#EA527D"></path>
                    <path d="M1010.004,224.4854 L1010.004,331.9644 L1023.278,331.9644 L1023.278,327.8224 L1023.278,271.0154 C1023.278,260.4964 1031.992,251.8884 1042.513,251.8884 L1042.6,251.8884 C1053.121,251.8884 1061.816,260.4964 1061.816,271.0154 L1061.816,327.8224 L1061.96,331.9644 L1075.09,331.9644 L1075.09,224.4854 L1010.004,224.4854 Z" id="Fill-25" fill="#EA527D"></path>
                    <path d="M1015.143,331.964 L994.588,331.964 L994.588,313.552 L1015.143,313.552 L1015.143,331.964 Z" id="Fill-26" fill="#EA527D"></path>
                    <path d="M1007.0069,312.4805 C1007.0069,314.7265 1005.1849,316.5465 1002.9359,316.5465 C1000.6919,316.5465 998.8719,314.7265 998.8719,312.4805 L998.8719,286.7865 C998.8719,284.5435 1000.6919,282.7185 1002.9359,282.7185 C1005.1849,282.7185 1007.0069,284.5435 1007.0069,286.7865 L1007.0069,312.4805 Z" id="Fill-27" fill="#EA527D"></path>
                    <path d="M1010.004,262.3809 L1003.152,282.5049 L1003.152,324.2559 L1012.145,324.2559" id="Fill-28" fill="#EA527D"></path>
                    <path d="M1069.524,331.964 L1090.078,331.964 L1090.078,313.552 L1069.524,313.552 L1069.524,331.964 Z" id="Fill-29" fill="#EA527D"></path>
                    <path d="M1085.795,286.7861 C1085.795,284.5431 1083.975,282.7191 1081.729,282.7191 C1079.48,282.7191 1077.662,284.5431 1077.662,286.7861 L1077.662,312.4801 C1077.662,314.7261 1079.48,316.5471 1081.729,316.5471 C1083.975,316.5471 1085.795,314.7261 1085.795,312.4801 L1085.795,286.7861 Z" id="Fill-30" fill="#EA527D"></path>
                    <path d="M1075.0898,262.3809 L1081.9428,282.5049 L1081.9428,324.2559 L1072.9468,324.2559" id="Fill-31" fill="#EA527D"></path>
                    <path d="M1047.256,321.256 L1037.837,321.256 L1037.837,331.964 L1047.256,331.964 L1047.256,321.256 Z" id="Fill-32" fill="#EA527D"></path>
                    <path d="M1044.6885,318.9717 C1044.6885,320.2367 1043.6645,321.2557 1042.4035,321.2557 L1042.2615,321.2557 C1041.0005,321.2557 1039.9785,320.2367 1039.9785,318.9717 L1039.9785,296.9927 C1039.9785,295.7327 1041.0005,294.7087 1042.2615,294.7087 L1042.4035,294.7087 C1043.6645,294.7087 1044.6885,295.7327 1044.6885,296.9927 L1044.6885,318.9717 Z" id="Fill-33" fill="#EA527D"></path>
                    <path d="M1501.0479,68.4043 C1501.0479,74.0803 1496.4489,78.6803 1490.7739,78.6803 C1485.0979,78.6803 1480.4969,74.0803 1480.4969,68.4043 C1480.4969,56.9403 1490.7739,54.1743 1490.7739,54.1743 C1490.7739,54.1743 1501.0479,57.5353 1501.0479,68.4043" id="Fill-34" fill="#EA527D"></path>
                    <path d="M1490.7736,38.6445 L1490.7736,38.6445 C1490.4456,38.6445 1490.1796,38.9125 1490.1796,39.2355 L1490.1796,59.6105 C1490.1796,59.9345 1490.4456,60.2005 1490.7736,60.2005 C1491.0996,60.2005 1491.3656,59.9345 1491.3656,59.6105 L1491.3656,39.2355 C1491.3656,38.9125 1491.0996,38.6445 1490.7736,38.6445" id="Fill-35" fill="#EA527D"></path>
                    <path d="M1492.4541,41.3105 L1489.0941,41.3105 C1488.8751,41.3105 1488.6991,41.1325 1488.6991,40.9155 C1488.6991,40.6995 1488.8751,40.5195 1489.0941,40.5195 L1492.4541,40.5195 C1492.6701,40.5195 1492.8471,40.6995 1492.8471,40.9155 C1492.8471,41.1325 1492.6701,41.3105 1492.4541,41.3105" id="Fill-36" fill="#EA527D"></path>
                    <path d="M1446.5762,56.4141 C1446.5762,68.7121 1436.6072,78.6811 1424.3102,78.6811 C1412.0122,78.6811 1402.0452,68.7121 1402.0452,56.4141 C1402.0452,31.5801 1424.3102,25.5841 1424.3102,25.5841 C1424.3102,25.5841 1446.5762,32.8621 1446.5762,56.4141" id="Fill-37" fill="#EA527D"></path>
                    <path d="M1424.3105,12.5244 L1424.3105,12.5244 C1423.6015,12.5244 1423.0265,13.1004 1423.0265,13.8084 L1423.0265,37.3594 C1423.0265,38.0654 1423.6015,38.6444 1424.3105,38.6444 C1425.0145,38.6444 1425.5935,38.0654 1425.5935,37.3594 L1425.5935,13.8084 C1425.5935,13.1004 1425.0145,12.5244 1424.3105,12.5244" id="Fill-38" fill="#EA527D"></path>
                    <path d="M1427.9482,18.3057 L1420.6702,18.3057 C1420.1992,18.3057 1419.8122,17.9177 1419.8122,17.4477 C1419.8122,16.9787 1420.1992,16.5917 1420.6702,16.5917 L1427.9482,16.5917 C1428.4202,16.5917 1428.8042,16.9787 1428.8042,17.4477 C1428.8042,17.9177 1428.4202,18.3057 1427.9482,18.3057" id="Fill-39" fill="#EA527D"></path>
                    <path d="M1551.418,12.5244 L1551.418,12.5244 C1550.711,12.5244 1550.135,13.1004 1550.135,13.8084 L1550.135,37.3594 C1550.135,38.0654 1550.711,38.6444 1551.418,38.6444 C1552.124,38.6444 1552.702,38.0654 1552.702,37.3594 L1552.702,13.8084 C1552.702,13.1004 1552.124,12.5244 1551.418,12.5244" id="Fill-40" fill="#EA527D"></path>
                    <path d="M1555.0577,18.3057 L1547.7797,18.3057 C1547.3087,18.3057 1546.9217,17.9177 1546.9217,17.4477 C1546.9217,16.9787 1547.3087,16.5917 1547.7797,16.5917 L1555.0577,16.5917 C1555.5277,16.5917 1555.9137,16.9787 1555.9137,17.4477 C1555.9137,17.9177 1555.5277,18.3057 1555.0577,18.3057" id="Fill-41" fill="#EA527D"></path>
                    <path d="M1432.4727,132.3125 L1425.4727,132.3125 L1425.4727,105.3355 C1425.4727,103.2765 1426.9127,101.5885 1428.9727,101.5885 C1431.0327,101.5885 1432.4727,103.2765 1432.4727,105.3355 L1432.4727,132.3125 Z M1418.5297,90.2415 C1418.5297,87.7685 1420.5527,85.7445 1423.0267,85.7445 C1425.4967,85.7445 1427.5217,87.7685 1427.5217,90.2415 C1427.5217,92.7125 1425.4967,94.7385 1423.0267,94.7385 C1420.5527,94.7385 1418.5297,92.7125 1418.5297,90.2415 L1418.5297,90.2415 Z M1419.4727,132.3125 L1413.4727,132.3125 L1413.4727,105.3355 C1413.4727,103.2765 1414.6037,101.5885 1416.6627,101.5885 C1418.7207,101.5885 1419.4727,103.2765 1419.4727,105.3355 L1419.4727,132.3125 Z M1398.4727,162.3125 L1448.4727,162.3125 L1448.4727,56.3125 L1398.4727,56.3125 L1398.4727,162.3125 Z" id="Fill-42" fill="#EA527D"></path>
                    <path d="M1448.073,58.127 L1400.545,58.127 L1400.545,52.131 L1448.073,52.131 L1448.073,58.127 Z" id="Fill-43" fill="#EA527D"></path>
                    <path d="M1529.1523,56.4141 C1529.1523,68.7121 1539.1203,78.6811 1551.4173,78.6811 C1563.7163,78.6811 1573.6833,68.7121 1573.6833,56.4141 C1573.6833,31.5801 1551.4173,25.5841 1551.4173,25.5841 C1551.4173,25.5841 1529.1523,32.8621 1529.1523,56.4141" id="Fill-44" fill="#EA527D"></path>
                    <path d="M1543.5801,105.3359 C1543.5801,103.2759 1544.7151,101.5889 1546.7751,101.5889 C1548.8371,101.5889 1549.9731,103.2759 1549.9731,105.3359 L1549.9731,132.1159 L1543.5801,132.1159 L1543.5801,105.3359 Z M1552.7011,94.7379 C1550.2301,94.7379 1548.2051,92.7129 1548.2051,90.2409 C1548.2051,87.7689 1550.2301,85.7439 1552.7011,85.7439 C1555.1751,85.7439 1557.1981,87.7689 1557.1981,90.2409 C1557.1981,92.7129 1555.1751,94.7379 1552.7011,94.7379 L1552.7011,94.7379 Z M1556.3671,105.3359 C1556.3671,103.2759 1557.5041,101.5889 1559.5631,101.5889 C1561.6231,101.5889 1562.7601,103.2759 1562.7601,105.3359 L1562.7601,132.1159 L1556.3671,132.1159 L1556.3671,105.3359 Z M1527.1391,162.2569 L1577.3741,162.2569 L1577.3741,56.3069 L1527.1391,56.3069 L1527.1391,162.2569 Z" id="Fill-45" fill="#EA527D"></path>
                    <path d="M1528.052,58.133 L1575.547,58.133 L1575.547,51.739 L1528.052,51.739 L1528.052,58.133 Z" id="Fill-46" fill="#EA527D"></path>
                    <path d="M1568.4727,330.3125 L1537.4727,330.3125 L1537.4727,295.4535 C1537.4727,286.8015 1544.3207,279.7225 1552.9727,279.7225 C1561.6267,279.7225 1568.4727,286.8015 1568.4727,295.4535 L1568.4727,330.3125 Z M1516.4727,330.3125 L1460.4727,330.3125 L1460.4727,236.1605 C1460.4727,219.8435 1472.1567,206.4985 1488.4727,206.4985 C1504.7887,206.4985 1516.4727,219.8435 1516.4727,236.1605 L1516.4727,330.3125 Z M1439.4727,330.3125 L1410.4727,330.3125 L1410.4727,295.4535 C1410.4727,286.8015 1416.3187,279.7225 1424.9707,279.7225 C1433.6247,279.7225 1439.4727,286.8015 1439.4727,295.4535 L1439.4727,330.3125 Z M1398.4727,332.3125 L1577.4727,332.3125 L1577.4727,146.3125 L1398.4727,146.3125 L1398.4727,332.3125 Z" id="Fill-47" fill="#EA527D"></path>
                    <path d="M1525.1523,134.0703 C1525.1523,154.7993 1508.3513,171.5993 1487.6233,171.5993 C1466.8963,171.5993 1450.0933,154.7993 1450.0933,134.0703 C1450.0933,113.3433 1466.8963,96.5433 1487.6233,96.5433 C1508.3513,96.5433 1525.1523,113.3433 1525.1523,134.0703" id="Fill-48" fill="#EA527D"></path>
                    <path d="M1533.93,180.593 L1445.721,180.593 L1445.721,133.918 L1533.93,133.918 L1533.93,180.593 Z" id="Fill-49" fill="#EA527D"></path>
                    <path d="M1501.048,101.589 L1480.497,101.589 L1480.497,68.404 L1501.048,68.404 L1501.048,101.589 Z" id="Fill-50" fill="#EA527D"></path>
                    <path d="M1691.885,331.964 L1601.965,331.964 L1601.965,20.661 L1691.885,20.661 L1691.885,331.964 Z" id="Fill-51" fill="#EA527D"></path>
                    <path d="M1695.312,26.671 L1598.537,26.671 L1598.537,21.318 L1695.312,21.318 L1695.312,26.671 Z" id="Fill-52" fill="#EA527D"></path>
                    <path d="M1695.312,39.527 L1598.537,39.527 L1598.537,34.173 L1695.312,34.173 L1695.312,39.527 Z" id="Fill-53" fill="#EA527D"></path>
                    <path d="M1695.312,52.378 L1598.537,52.378 L1598.537,47.025 L1695.312,47.025 L1695.312,52.378 Z" id="Fill-54" fill="#EA527D"></path>
                    <path d="M1695.312,65.233 L1598.537,65.233 L1598.537,59.88 L1695.312,59.88 L1695.312,65.233 Z" id="Fill-55" fill="#EA527D"></path>
                    <path d="M1695.312,78.089 L1598.537,78.089 L1598.537,72.736 L1695.312,72.736 L1695.312,78.089 Z" id="Fill-56" fill="#EA527D"></path>
                    <path d="M1695.312,90.941 L1598.537,90.941 L1598.537,85.589 L1695.312,85.589 L1695.312,90.941 Z" id="Fill-57" fill="#EA527D"></path>
                    <path d="M1695.312,103.797 L1598.537,103.797 L1598.537,98.444 L1695.312,98.444 L1695.312,103.797 Z" id="Fill-58" fill="#EA527D"></path>
                    <path d="M1695.312,116.651 L1598.537,116.651 L1598.537,111.298 L1695.312,111.298 L1695.312,116.651 Z" id="Fill-59" fill="#EA527D"></path>
                    <path d="M1695.312,129.504 L1598.537,129.504 L1598.537,124.151 L1695.312,124.151 L1695.312,129.504 Z" id="Fill-60" fill="#EA527D"></path>
                    <path d="M1695.312,142.359 L1598.537,142.359 L1598.537,137.006 L1695.312,137.006 L1695.312,142.359 Z" id="Fill-61" fill="#EA527D"></path>
                    <path d="M1695.312,155.215 L1598.537,155.215 L1598.537,149.863 L1695.312,149.863 L1695.312,155.215 Z" id="Fill-62" fill="#EA527D"></path>
                    <path d="M1695.312,168.069 L1598.537,168.069 L1598.537,162.714 L1695.312,162.714 L1695.312,168.069 Z" id="Fill-63" fill="#EA527D"></path>
                    <path d="M1695.312,180.922 L1598.537,180.922 L1598.537,175.569 L1695.312,175.569 L1695.312,180.922 Z" id="Fill-64" fill="#EA527D"></path>
                    <path d="M1695.312,193.777 L1598.537,193.777 L1598.537,188.425 L1695.312,188.425 L1695.312,193.777 Z" id="Fill-65" fill="#EA527D"></path>
                    <path d="M1695.312,206.631 L1598.537,206.631 L1598.537,201.279 L1695.312,201.279 L1695.312,206.631 Z" id="Fill-66" fill="#EA527D"></path>
                    <path d="M1695.312,219.485 L1598.537,219.485 L1598.537,214.132 L1695.312,214.132 L1695.312,219.485 Z" id="Fill-67" fill="#EA527D"></path>
                    <path d="M1695.312,232.341 L1598.537,232.341 L1598.537,226.987 L1695.312,226.987 L1695.312,232.341 Z" id="Fill-68" fill="#EA527D"></path>
                    <path d="M1695.312,245.195 L1598.537,245.195 L1598.537,239.842 L1695.312,239.842 L1695.312,245.195 Z" id="Fill-69" fill="#EA527D"></path>
                    <path d="M1695.312,258.049 L1598.537,258.049 L1598.537,252.695 L1695.312,252.695 L1695.312,258.049 Z" id="Fill-70" fill="#EA527D"></path>
                    <path d="M1695.312,270.902 L1598.537,270.902 L1598.537,265.548 L1695.312,265.548 L1695.312,270.902 Z" id="Fill-71" fill="#EA527D"></path>
                    <path d="M1695.312,283.757 L1598.537,283.757 L1598.537,278.405 L1695.312,278.405 L1695.312,283.757 Z" id="Fill-72" fill="#EA527D"></path>
                    <path d="M1695.312,296.613 L1598.537,296.613 L1598.537,291.259 L1695.312,291.259 L1695.312,296.613 Z" id="Fill-73" fill="#EA527D"></path>
                    <path d="M1695.312,309.465 L1598.537,309.465 L1598.537,304.115 L1695.312,304.115 L1695.312,309.465 Z" id="Fill-74" fill="#EA527D"></path>
                    <path d="M862.7442,344.3125 C858.6772,344.3125 853.3242,344.9225 850.7542,349.6325 C848.1852,354.3435 848.1852,354.3125 848.1852,354.3125 L947.9572,354.3125 L949.4552,344.3125 L862.7442,344.3125 Z" id="Fill-91" fill="#EA527D"></path>
                    <path d="M939.9278,342.3906 L866.2778,342.3906 C865.0408,342.3906 864.0298,343.4026 864.0298,344.6386 C864.0298,345.8736 865.0408,346.8866 866.2778,346.8866 L939.9278,346.8866 C941.1658,346.8866 942.1758,345.8736 942.1758,344.6386 C942.1758,343.4026 941.1658,342.3906 939.9278,342.3906" id="Fill-92" fill="#EA527D"></path>
                    <path d="M903.9063,346.8867 L903.9063,346.8867 C903.4653,346.8867 903.1033,346.5277 903.1033,346.0837 L903.1033,213.8747 C903.1033,213.4347 903.4653,213.0727 903.9063,213.0727 C904.3463,213.0727 904.7093,213.4347 904.7093,213.8747 L904.7093,346.0837 C904.7093,346.5277 904.3463,346.8867 903.9063,346.8867" id="Fill-93" fill="#EA527D"></path>
                    <path d="M903.9063,219.4971 L938.3223,344.6391" id="Stroke-94" stroke="#EA527D"></path>
                    <path d="M1110.078,331.964 L1087.812,331.964 L1087.812,313.552 L1110.078,313.552 L1110.078,331.964 Z" id="Fill-95" fill="#EA527D"></path>
                    <path d="M1733.473,275.312 L1669.473,275.312 L1669.473,332.312 L1733.473,332.312 L1733.473,275.312 Z" id="Fill-96" fill="#EA527D"></path>
                    <path d="M0,347.401 L762.128,347.401 L762.128,334.709 L0,334.709 L0,347.401 Z" id="Fill-97" fill="#EA527D"></path>
                    <path d="M526.6582,249.3887 L526.6582,277.9587 L508.3152,277.9587 L508.3152,249.3887 C508.3152,249.3887 508.4042,247.9947 508.4042,247.2847 C508.4042,242.2397 512.4942,238.1267 517.5432,238.1267 C522.5882,238.1267 526.6762,242.2557 526.6762,247.2997 C526.6762,248.0037 526.6582,249.3887 526.6582,249.3887 L526.6582,249.3887 Z M526.6582,304.0607 L526.6582,332.6307 L508.3152,332.6307 L508.3152,304.0607 C508.3152,304.0607 508.4042,302.6637 508.4042,301.9587 C508.4042,296.9107 512.4942,292.7947 517.5432,292.7947 C522.5882,292.7947 526.6762,296.9277 526.6762,301.9717 C526.6762,302.6777 526.6582,304.0607 526.6582,304.0607 L526.6582,304.0607 Z M503.7322,249.3887 L503.7322,277.9587 L485.3922,277.9587 L485.3922,249.3887 C485.3922,249.3887 485.4782,247.9947 485.4782,247.2847 C485.4782,242.2397 489.5662,238.1267 494.6132,238.1267 C499.6582,238.1267 503.7512,242.2557 503.7512,247.2997 C503.7512,248.0037 503.7322,249.3887 503.7322,249.3887 L503.7322,249.3887 Z M503.7322,304.0607 L503.7322,332.6307 L485.3922,332.6307 L485.3922,304.0607 C485.3922,304.0607 485.4782,302.6637 485.4782,301.9587 C485.4782,296.9107 489.5662,292.7947 494.6132,292.7947 C499.6582,292.7947 503.7512,296.9277 503.7512,301.9717 C503.7512,302.6777 503.7322,304.0607 503.7322,304.0607 L503.7322,304.0607 Z M480.8032,249.3887 L480.8032,277.9587 L462.4652,277.9587 L462.4652,249.3887 C462.4652,249.3887 462.5492,247.9947 462.5492,247.2847 C462.5492,242.2397 466.6402,238.1267 471.6842,238.1267 C476.7342,238.1267 480.8232,242.2557 480.8232,247.2997 C480.8232,248.0037 480.8032,249.3887 480.8032,249.3887 L480.8032,249.3887 Z M480.8032,304.0607 L480.8032,332.6307 L462.4652,332.6307 L462.4652,304.0607 C462.4652,304.0607 462.5492,302.6637 462.5492,301.9587 C462.5492,296.9107 466.6402,292.7947 471.6842,292.7947 C476.7342,292.7947 480.8232,296.9277 480.8232,301.9717 C480.8232,302.6777 480.8032,304.0607 480.8032,304.0607 L480.8032,304.0607 Z M457.8812,249.3887 L457.8812,277.9587 L439.5372,277.9587 L439.5372,249.3887 C439.5372,249.3887 439.6252,247.9947 439.6252,247.2847 C439.6252,242.2397 443.7132,238.1267 448.7582,238.1267 C453.8042,238.1267 457.8942,242.2557 457.8942,247.2997 C457.8942,248.0037 457.8812,249.3887 457.8812,249.3887 L457.8812,249.3887 Z M457.8812,304.0607 L457.8812,332.6307 L439.5372,332.6307 L439.5372,304.0607 C439.5372,304.0607 439.6252,302.6637 439.6252,301.9587 C439.6252,296.9107 443.7132,292.7947 448.7582,292.7947 C453.8042,292.7947 457.8942,296.9277 457.8942,301.9717 C457.8942,302.6777 457.8812,304.0607 457.8812,304.0607 L457.8812,304.0607 Z M434.9512,249.3887 L434.9512,277.9587 L416.6082,277.9587 L416.6082,249.3887 C416.6082,249.3887 416.6932,247.9947 416.6932,247.2847 C416.6932,242.2397 420.7862,238.1267 425.8342,238.1267 C430.8752,238.1267 434.9672,242.2557 434.9672,247.2997 C434.9672,248.0037 434.9512,249.3887 434.9512,249.3887 L434.9512,249.3887 Z M434.9512,304.0607 L434.9512,332.6307 L416.6082,332.6307 L416.6082,304.0607 C416.6082,304.0607 416.6932,302.6637 416.6932,301.9587 C416.6932,296.9107 420.7862,292.7947 425.8342,292.7947 C430.8752,292.7947 434.9672,296.9277 434.9672,301.9717 C434.9672,302.6777 434.9512,304.0607 434.9512,304.0607 L434.9512,304.0607 Z M412.0242,249.3887 L412.0242,277.9587 L393.6852,277.9587 L393.6852,249.3887 C393.6852,249.3887 393.7702,247.9947 393.7702,247.2847 C393.7702,242.2397 397.8572,238.1267 402.9082,238.1267 C407.9492,238.1267 412.0402,242.2557 412.0402,247.2997 C412.0402,248.0037 412.0242,249.3887 412.0242,249.3887 L412.0242,249.3887 Z M412.0242,304.0607 L412.0242,332.6307 L393.6852,332.6307 L393.6852,304.0607 C393.6852,304.0607 393.7702,302.6637 393.7702,301.9587 C393.7702,296.9107 397.8572,292.7947 402.9082,292.7947 C407.9492,292.7947 412.0402,296.9277 412.0402,301.9717 C412.0402,302.6777 412.0242,304.0607 412.0242,304.0607 L412.0242,304.0607 Z M389.0962,249.3887 L389.0962,277.9587 L370.7582,277.9587 L370.7582,249.3887 C370.7582,249.3887 370.8432,247.9947 370.8432,247.2847 C370.8432,242.2397 374.9352,238.1267 379.9802,238.1267 C385.0272,238.1267 389.1172,242.2557 389.1172,247.2997 C389.1172,248.0037 389.0962,249.3887 389.0962,249.3887 L389.0962,249.3887 Z M389.0962,304.0607 L389.0962,332.6307 L370.7582,332.6307 L370.7582,304.0607 C370.7582,304.0607 370.8432,302.6637 370.8432,301.9587 C370.8432,296.9107 374.9352,292.7947 379.9802,292.7947 C385.0272,292.7947 389.1172,296.9277 389.1172,301.9717 C389.1172,302.6777 389.0962,304.0607 389.0962,304.0607 L389.0962,304.0607 Z M541.8222,220.1137 L541.8222,208.4727 L531.4242,208.4727 L531.4242,208.3477 C531.4242,162.9137 494.5952,126.0607 449.1602,126.0607 C403.7302,126.0607 366.9002,162.9287 366.9002,208.3567 L366.9002,208.4727 L355.5912,208.4727 L355.5912,220.1137 L359.8222,220.1137 L359.8222,281.8417 L355.5912,281.8417 L355.5912,286.4227 L359.8222,286.4227 L359.8222,335.8027 L537.5942,335.8027 L537.5942,286.4227 L541.8222,286.4227 L541.8222,281.8417 L537.5942,281.8417 L537.5942,220.1137 L541.8222,220.1137 Z" id="Fill-99" fill="#EA527D"></path>
                    <path d="M330.766,335.451 L32.011,335.451 L32.011,235.279 L330.766,235.279 L330.766,335.451 Z" id="Fill-100" fill="#EA527D"></path>
                    <path d="M330.766,304.412 L32.011,304.412 L32.011,204.242 L330.766,204.242 L330.766,304.412 Z" id="Fill-101" fill="#EA527D"></path>
                    <path d="M335.879,281.8145 C335.879,282.8965 334.994,283.7815 333.912,283.7815 L27.098,283.7815 C26.016,283.7815 25.131,282.8965 25.131,281.8145 L25.131,279.0415 C25.131,277.9595 26.016,277.0745 27.098,277.0745 L333.912,277.0745 C334.994,277.0745 335.879,277.9595 335.879,279.0415 L335.879,281.8145 Z" id="Fill-102" fill="#EA527D"></path>
                    <path d="M335.879,233.1367 C335.879,234.2187 334.994,235.1037 333.912,235.1037 L27.098,235.1037 C26.016,235.1037 25.131,234.2187 25.131,233.1367 L25.131,230.3667 C25.131,229.2847 26.016,228.4007 27.098,228.4007 L333.912,228.4007 C334.994,228.4007 335.879,229.2847 335.879,230.3667 L335.879,233.1367 Z" id="Fill-103" fill="#EA527D"></path>
                    <path d="M263.2188,199.3008 L334.1168,199.3008 L298.6698,179.1968 L263.2188,199.3008 Z" id="Fill-106" fill="#EA527D"></path>
                    <path d="M263.045,204.2422 L330.943,204.2422 L334.117,199.3012 L263.045,199.3012 L263.045,204.2422 Z" id="Fill-107" fill="#EA527D"></path>
                    <path d="M300.0801,167.1094 C300.0801,167.9414 299.4061,168.6174 298.5741,168.6174 L298.4121,168.6174 C297.5761,168.6174 296.9061,167.9414 296.9061,167.1094 L296.9061,156.3604 C296.9061,155.5324 297.5761,154.8584 298.4121,154.8584 L298.5741,154.8584 C299.4061,154.8584 300.0801,155.5324 300.0801,156.3604 L300.0801,167.1094 Z" id="Fill-109" fill="#EA527D"></path>
                    <path d="M298.67,176.0195 L325.411,191.1875 L333.233,195.5835 L333.233,185.0175 C333.233,175.2765 324.889,167.5565 314.371,167.5565 L285.435,167.5565 C274.916,167.5565 266.217,175.2765 266.217,185.0175 L266.217,194.7805 L271.921,191.1875 L298.67,176.0195 Z" id="Fill-111" fill="#EA527D"></path>
                    <path d="M235.535,198.24 L265.16,198.24 L265.16,200.009 L235.535,200.009 L235.535,198.24 Z" id="Fill-113" fill="#EA527D"></path>
                    <path d="M705.5879,110.7676 C705.5879,111.5486 704.9599,112.1776 704.1779,112.1776 L694.6519,112.1776 C693.8769,112.1776 693.2419,111.5486 693.2419,110.7676 C693.2419,109.9886 693.8769,109.3566 694.6519,109.3566 L704.1779,109.3566 C704.9599,109.3566 705.5879,109.9886 705.5879,110.7676" id="Fill-117" fill="#EA527D"></path>
                    <path d="M700.6534,120.6445 C700.6534,121.4255 700.0194,122.0535 699.2434,122.0535 C698.4594,122.0535 697.8314,121.4255 697.8314,120.6445 L697.8314,106.1855 C697.8314,105.4065 698.4594,104.7725 699.2434,104.7725 C700.0194,104.7725 700.6534,105.4065 700.6534,106.1855 L700.6534,120.6445 Z" id="Fill-118" fill="#EA527D"></path>
                    <path d="M613.1739,0.3652 L613.1739,0.3652 L609.9969,54.6842 L616.3519,54.6842 L613.1739,0.3652 Z" id="Fill-119" fill="#EA527D"></path>
                    <path d="M619.1739,13.7695 C619.1739,14.5475 618.5409,15.1795 617.7639,15.1795 L608.2379,15.1795 C607.4609,15.1795 606.8259,14.5475 606.8259,13.7695 C606.8259,12.9905 607.4609,12.3575 608.2379,12.3575 L617.7639,12.3575 C618.5409,12.3575 619.1739,12.9905 619.1739,13.7695" id="Fill-120" fill="#EA527D"></path>
                    <path d="M629.7559,160.5039 L621.9929,160.5039 L621.9929,101.9499 C621.9929,99.8089 623.7329,98.0709 625.8729,98.0709 C628.0179,98.0709 629.7559,99.8089 629.7559,101.9499 L629.7559,160.5039 Z M617.7639,195.4939 C617.7639,197.7929 615.8999,199.6539 613.6059,199.6539 L613.4549,199.6539 C611.1599,199.6539 609.2969,197.7929 609.2969,195.4939 L609.2969,195.3459 C609.2969,193.0509 611.1599,191.1879 613.4549,191.1879 L613.6059,191.1879 C615.8999,191.1879 617.7639,193.0509 617.7639,195.3459 L617.7639,195.4939 Z M617.7639,231.8259 C617.7639,234.1209 615.8999,235.9849 613.6059,235.9849 L613.4549,235.9849 C611.1599,235.9849 609.2969,234.1209 609.2969,231.8259 L609.2969,231.6759 C609.2969,229.3829 611.1599,227.5199 613.4549,227.5199 L613.6059,227.5199 C615.8999,227.5199 617.7639,229.3829 617.7639,231.6759 L617.7639,231.8259 Z M617.7639,267.4519 C617.7639,269.7469 615.8999,271.6079 613.6059,271.6079 L613.4549,271.6079 C611.1599,271.6079 609.2969,269.7469 609.2969,267.4519 L609.2969,267.3029 C609.2969,265.0069 611.1599,263.1449 613.4549,263.1449 L613.6059,263.1449 C615.8999,263.1449 617.7639,265.0069 617.7639,267.3029 L617.7639,267.4519 Z M608.9439,101.9499 C608.9439,99.8089 610.6789,98.0709 612.8199,98.0709 C614.9669,98.0709 616.7009,99.8089 616.7009,101.9499 L616.7009,160.5039 L608.9439,160.5039 L608.9439,101.9499 Z M603.6519,160.5039 L595.8949,160.5039 L595.8949,101.9499 C595.8949,99.8089 597.6309,98.0709 599.7749,98.0709 C601.9199,98.0709 603.6519,99.8089 603.6519,101.9499 L603.6519,160.5039 Z M623.8169,75.1429 L623.7709,75.1429 L617.7849,54.3329 L608.5879,54.3329 L602.5719,75.0969 L588.1319,95.6449 L588.1319,335.1019 L638.2209,335.1019 L638.2209,95.6449 L623.8169,75.1429 Z" id="Fill-121" fill="#EA527D"></path>
                    <path d="M641.7461,169.4941 C641.7461,172.3201 639.4571,174.6111 636.6341,174.6111 L589.7171,174.6111 C586.8961,174.6111 584.6071,172.3201 584.6071,169.4941 C584.6071,166.6741 586.8961,164.3821 589.7171,164.3821 L636.6341,164.3821 C639.4571,164.3821 641.7461,166.6741 641.7461,169.4941" id="Fill-122" fill="#EA527D"></path>
                    <path d="M785.6573,0.3652 L785.6573,0.3652 L788.8303,54.6842 L782.4863,54.6842 L785.6573,0.3652 Z" id="Fill-123" fill="#EA527D"></path>
                    <path d="M779.6622,13.7695 C779.6622,14.5475 780.2882,15.1795 781.0742,15.1795 L790.5982,15.1795 C791.3772,15.1795 792.0082,14.5475 792.0082,13.7695 C792.0082,12.9905 791.3772,12.3575 790.5982,12.3575 L781.0742,12.3575 C780.2882,12.3575 779.6622,12.9905 779.6622,13.7695" id="Fill-124" fill="#EA527D"></path>
                    <path d="M769.0821,101.9502 C769.0821,99.8082 770.8181,98.0712 772.9611,98.0712 C775.1071,98.0712 776.8401,99.8082 776.8401,101.9502 L776.8401,160.5042 L769.0821,160.5042 L769.0821,101.9502 Z M781.0741,195.3462 C781.0741,193.0512 782.9341,191.1872 785.2281,191.1872 L785.3791,191.1872 C787.6761,191.1872 789.5381,193.0512 789.5381,195.3462 L789.5381,195.4942 C789.5381,197.7932 787.6761,199.6542 785.3791,199.6542 L785.2281,199.6542 C782.9341,199.6542 781.0741,197.7932 781.0741,195.4942 L781.0741,195.3462 Z M781.0741,231.6762 C781.0741,229.3832 782.9341,227.5192 785.2281,227.5192 L785.3791,227.5192 C787.6761,227.5192 789.5381,229.3832 789.5381,231.6762 L789.5381,231.8262 C789.5381,234.1212 787.6761,235.9852 785.3791,235.9852 L785.2281,235.9852 C782.9341,235.9852 781.0741,234.1212 781.0741,231.8262 L781.0741,231.6762 Z M781.0741,267.3022 C781.0741,265.0072 782.9341,263.1442 785.2281,263.1442 L785.3791,263.1442 C787.6761,263.1442 789.5381,265.0072 789.5381,267.3022 L789.5381,267.4522 C789.5381,269.7472 787.6761,271.6082 785.3791,271.6082 L785.2281,271.6082 C782.9341,271.6082 781.0741,269.7472 781.0741,267.4522 L781.0741,267.3022 Z M789.8891,160.5042 L782.1311,160.5042 L782.1311,101.9502 C782.1311,99.8082 783.8661,98.0712 786.0091,98.0712 C788.1531,98.0712 789.8891,99.8082 789.8891,101.9502 L789.8891,160.5042 Z M795.1821,101.9502 C795.1821,99.8082 796.9171,98.0712 799.0621,98.0712 C801.2051,98.0712 802.9411,99.8082 802.9411,101.9502 L802.9411,160.5042 L795.1821,160.5042 L795.1821,101.9502 Z M760.6171,95.6442 L760.6171,335.1012 L810.7001,335.1012 L810.7001,95.6442 L796.2621,75.0972 L790.2401,54.3332 L781.0491,54.3332 L775.0611,75.1422 L775.0171,75.1422 L760.6171,95.6442 Z" id="Fill-125" fill="#EA527D"></path>
                    <path d="M757.086,169.4941 C757.086,172.3201 759.377,174.6111 762.197,174.6111 L809.111,174.6111 C811.94,174.6111 814.231,172.3201 814.231,169.4941 C814.231,166.6741 811.94,164.3821 809.111,164.3821 L762.197,164.3821 C759.377,164.3821 757.086,166.6741 757.086,169.4941" id="Fill-126" fill="#EA527D"></path>
                    <path d="M760.6172,142.5137 L699.2432,117.8207 L637.8692,142.5137 L637.8692,170.0277 L760.6172,170.0277 L760.6172,142.5137 Z" id="Fill-127" fill="#EA527D"></path>
                    <path d="M760.6172,170.0273 L637.8692,170.0273 L637.8692,335.1013 L650.5642,335.1013 L650.5642,244.0963 C650.5642,236.6963 656.5612,230.6943 663.9632,230.6943 C671.3682,230.6943 677.3742,236.6963 677.3742,244.0963 L677.3742,335.1013 L685.4862,335.1013 L685.4862,244.0963 C685.4862,236.6963 691.4862,230.6943 698.8882,230.6943 C706.2912,230.6943 712.2892,236.6963 712.2892,244.0963 L712.2892,335.1013 L721.1102,335.1013 L721.1102,244.0963 C721.1102,236.6963 727.1102,230.6943 734.5122,230.6943 C741.9162,230.6943 747.9182,236.6963 747.9182,244.0963 L747.9182,335.1013 L760.6172,335.1013 L760.6172,170.0273 Z" id="Fill-128" fill="#EA527D"></path>
                    <path d="M712.2891,335.1016 L685.4861,335.1016" id="Fill-129" fill="#EA527D"></path>
                    <path d="M677.3741,335.1016 L650.5641,335.1016" id="Fill-130" fill="#EA527D"></path>
                    <path d="M747.918,335.1016 L721.11,335.1016" id="Fill-131" fill="#EA527D"></path>
                    <path d="M760.617,331.222 L637.869,331.222 L637.869,335.102 L760.617,335.102 L760.617,331.222 Z" id="Fill-132" fill="#EA527D"></path>
                    <path d="M264.172,362 L819.475,362 L819.475,331.035 L264.172,331.035 L264.172,362 Z" id="Fill-133" fill="#EA527D"></path>
                </g>
            </g>
        </g>
    </g>
</svg>
