<svg id="clouds" width="2941px" height="257px" viewBox="0 0 2941 257" version="1.1" xmlns="http://www.w3.org/2000/svg" xmlns:xlink="http://www.w3.org/1999/xlink" xmlns:sketch="http://www.bohemiancoding.com/sketch/ns">
    <g id="Page-1" stroke="none" stroke-width="1" fill="none" fill-rule="evenodd" sketch:type="MSPage">
        <g id="Desktop-HD" sketch:type="MSArtboardGroup" transform="translate(-7.000000, -40.000000)">
            <g id="Page-1" sketch:type="MSLayerGroup" transform="translate(-257.000000, 47.000000)">
                <g id="clouds" transform="translate(264.000000, 0.000000)" sketch:type="MSShapeGroup">
                    <g id="left">
                        <path d="M342.425276,206.38204 L316.925569,206.38204 C313.241997,206.38204 311.048606,203.225235 311.048606,200.26622 C311.048606,197.301977 313.040457,194.148657 316.925569,194.148657 L328.749295,194.148657 C332.301124,194.148657 335.17417,191.368264 335.17417,187.82372 C335.17417,185.070338 333.437081,182.729962 330.994162,181.913532 L303.994679,181.913532 C300.393991,181.913532 297.474704,179.389308 297.474704,175.795099 C297.474704,172.202632 300.393991,169.678407 303.994679,169.678407 L332.775748,169.678407 C335.375711,168.861977 337.264611,166.167845 337.264611,163.30119 C337.264611,159.757518 334.390691,156.628595 330.838863,156.628595 L285.133603,156.628595 L237.622329,156.628595 L191.914452,156.628595 C188.366113,156.628595 185.488704,159.64686 185.488704,163.18879 C185.488704,166.422271 187.884509,168.861977 190.994868,169.678407 L207.960064,169.678407 L212.960195,169.678407 L252.029441,169.678407 C255.391943,169.678407 258.118415,172.400422 258.118415,175.759374 C258.118415,179.119198 255.391943,181.842955 252.029441,181.842955 L213.942597,181.842955 C213.621528,181.883907 213.293479,181.913532 212.960195,181.913532 L208.9826,181.913532 L163.275596,181.913532 C160.870194,182.729962 159.163641,185.106062 159.163641,187.833304 C159.163641,191.231466 161.8081,194.148657 165.153153,194.148657 L187.710888,194.148657 C187.960414,194.116418 188.204706,194.071981 188.462958,194.071981 L232.531462,194.071981 C235.893964,194.071981 238.620436,196.794867 238.620436,200.152076 C238.620436,203.5119 235.893964,206.233915 232.531462,206.233915 L207.152156,206.233915 C206.695854,206.328018 206.222102,206.38204 205.730029,206.38204 L195.003872,206.38204 C195.003872,206.38204 190.398098,207.658529 190.398098,213.174007 C190.398098,216.719422 193.271145,220.247411 196.820356,220.247411 L242.528233,220.247411 L296.717399,220.247411 L342.425276,220.247411 C345.973615,220.247411 348.851896,216.857962 348.851896,213.315161 C348.851896,209.769746 345.973615,206.38204 342.425276,206.38204" id="Fill-135" fill="#EA527D"></path>
                        <path d="M1415.85071,50.4653162 L1390.35188,50.4653162 C1389.88423,50.4653162 1389.44015,50.4130368 1389.02223,50.3206765 L1351.98933,50.3206765 C1348.62596,50.3206765 1345.89949,47.5951765 1345.89949,44.2362243 C1345.89949,40.8781434 1348.62596,38.1561287 1351.98933,38.1561287 L1396.05697,38.1561287 C1396.31522,38.1561287 1396.55951,38.2005662 1396.81078,38.2310625 L1402.17473,38.2310625 C1405.72656,38.2310625 1408.60135,35.4532831 1408.60135,31.9069963 C1408.60135,29.1544853 1406.86252,26.813239 1404.42134,25.9976801 L1377.42011,25.9976801 C1377.08421,25.9976801 1376.75965,25.9680551 1376.43684,25.9262316 L1371.48644,25.9262316 C1368.12307,25.9262316 1365.39659,23.2024743 1365.39659,19.8435221 C1365.39659,16.4854412 1368.12307,13.7625551 1371.48644,13.7625551 L1377.42011,13.7625551 L1406.20118,13.7625551 C1408.80202,12.9469963 1410.69005,10.2519926 1410.69005,7.38533824 C1410.69005,3.84166544 1407.81613,0.712742647 1404.26517,0.712742647 L1358.55817,0.712742647 L1311.04777,0.712742647 L1265.33989,0.712742647 C1261.79417,0.712742647 1258.91676,3.73013603 1258.91676,7.2729375 C1258.91676,10.5038051 1261.31082,12.9469963 1264.42205,13.7625551 L1281.38637,13.7625551 L1286.38476,13.7625551 L1325.45575,13.7625551 C1328.81825,13.7625551 1331.54298,16.4854412 1331.54298,19.8435221 C1331.54298,23.2024743 1328.81825,25.9262316 1325.45575,25.9262316 L1287.36803,25.9262316 C1287.04784,25.9680551 1286.71979,25.9976801 1286.38476,25.9976801 L1282.40978,25.9976801 L1236.70103,25.9976801 C1234.29737,26.813239 1232.58995,29.1902096 1232.58995,31.9165809 C1232.58995,35.315614 1235.23528,38.2310625 1238.57946,38.2310625 L1261.1372,38.2310625 C1261.38672,38.2005662 1261.63189,38.1561287 1261.88927,38.1561287 L1305.95777,38.1561287 C1309.32027,38.1561287 1312.04674,40.8781434 1312.04674,44.2362243 C1312.04674,47.5951765 1309.32027,50.3206765 1305.95777,50.3206765 L1280.57846,50.3206765 C1280.12129,50.4121654 1279.64754,50.4653162 1279.15808,50.4653162 L1268.43018,50.4653162 C1268.43018,50.4653162 1263.82528,51.7435478 1263.82528,57.2572831 C1263.82528,60.8044412 1266.6992,64.3315588 1270.24754,64.3315588 L1315.95367,64.3315588 L1370.14196,64.3315588 L1415.85071,64.3315588 C1419.39905,64.3315588 1422.27733,60.941239 1422.27733,57.3993088 C1422.27733,53.8538934 1419.39905,50.4653162 1415.85071,50.4653162" id="Fill-137" fill="#E9527D"></path>
                        <path d="M1075.57093,223.635727 L1027.64349,223.635727 C1024.09602,223.635727 1021.2221,220.245407 1021.2221,216.704348 C1021.2221,213.161547 1024.09602,209.772969 1027.64349,209.772969 L1048.14393,209.772969 L1048.02964,209.772969 L1059.85598,209.772969 C1063.40432,209.772969 1066.2826,207.402098 1066.2826,203.855811 C1066.2826,201.102429 1064.5429,199.167219 1062.10172,198.352532 L1035.09962,198.352532 C1031.50155,198.352532 1028.58139,195.419657 1028.58139,191.82719 C1028.58139,188.231238 1031.50155,185.303591 1035.09962,185.303591 L1063.62419,185.303591 C1066.35676,184.488032 1068.37043,181.855764 1068.37043,178.893264 C1068.37043,175.345234 1065.49302,172.252907 1061.94381,172.252907 L968.723783,172.252907 C965.177189,172.252907 962.301525,175.529083 962.301525,179.07537 C962.301525,181.679756 963.861503,183.672473 966.095029,185.303591 L973.634922,185.303591 C977.235609,185.303591 980.151407,188.231238 980.151407,191.82719 C980.151407,195.419657 977.235609,198.352532 973.634922,198.352532 L939.880769,198.352532 C937.58966,199.167219 935.977334,201.167778 935.977334,203.816602 C935.977334,207.357661 938.852125,209.772969 942.399592,209.772969 L982.199968,209.772969 L982.086547,209.772969 L982.544594,209.772969 C986.090316,209.772969 988.967725,213.161547 988.967725,216.704348 C988.967725,220.245407 986.090316,223.635727 982.544594,223.635727 L971.598575,223.635727 C969.049215,224.453028 967.210046,227.154131 967.210046,229.985061 C967.210046,233.529606 970.087455,236.687282 973.634922,236.687282 L1073.53284,236.687282 C1077.0803,236.687282 1079.95684,233.529606 1079.95684,229.985061 C1079.95684,227.154131 1078.1168,224.453028 1075.57093,223.635727" id="Fill-140" fill="#EA527D"></path>
                        <path d="M1028.37052,0.713091176 L1043.88741,0.713091176" id="Stroke-142" stroke="#D1235C" stroke-width="13.721" stroke-linecap="round"></path>
                        <path d="M700.054927,94.1480757 L798.874468,94.1480757" id="Stroke-144" stroke="#D1235C" stroke-width="13.721" stroke-linecap="round"></path>
                        <path d="M169.717746,95.4575879 L236.685121,95.4575879" id="Stroke-146" stroke="#D1235C" stroke-width="13.721" stroke-linecap="round"></path>
                        <path d="M968.694905,88.819671 L952.174668,88.819671 L943.190836,88.819671 L940.128463,88.819671 C936.743276,88.819671 934.0011,86.0793585 934.0011,82.7029798 C934.0011,79.3231158 936.743276,76.5862886 940.128463,76.5862886 L943.190836,76.5862886 L952.174668,76.5862886 L955.017179,76.5862886 C958.565518,76.5862886 961.437692,74.2154173 961.437692,70.6691305 C961.437692,67.9174908 959.697985,65.1658511 957.261174,65.1658511 L930.260817,65.1658511 L884.932466,65.1658511 L835.248739,65.1658511 C832.842464,65.1658511 831.134166,67.9514724 831.134166,70.6787151 C831.134166,74.0768768 833.778626,76.5862886 837.126296,76.5862886 L877.702299,76.5862886 C881.250638,76.5862886 884.128047,79.1575643 884.128047,82.7029798 C884.128047,86.2466526 881.250638,88.819671 877.702299,88.819671 L866.977015,88.819671 C864.313361,89.6352298 862.371241,91.8849871 862.371241,94.7952077 C862.371241,98.3406232 865.247778,101.054796 868.794372,101.054796 L968.694905,101.054796 C972.238881,101.054796 975.115418,98.4800349 975.115418,94.9372335 C975.115418,91.3909467 972.238881,88.819671 968.694905,88.819671" id="Fill-148" fill="#EA527D"></path>
                        <path d="M463.703003,59.3810471 L447.182767,59.3810471 L438.201552,59.3810471 L435.139179,59.3810471 C431.753119,59.3810471 429.011816,56.6424772 429.011816,53.2652272 C429.011816,49.8844919 431.753119,47.1476647 435.139179,47.1476647 L438.201552,47.1476647 L447.182767,47.1476647 L450.026149,47.1476647 C453.574488,47.1476647 456.44928,44.7767934 456.44928,41.2305066 C456.44928,38.4779956 454.709573,35.7298412 452.270144,35.7298412 L425.269788,35.7298412 L379.939691,35.7298412 L330.255965,35.7298412 C327.851435,35.7298412 326.144882,38.5128485 326.144882,41.2400912 C326.144882,44.6373816 328.790214,47.1476647 332.135267,47.1476647 L372.712143,47.1476647 C376.257864,47.1476647 379.137018,49.7198118 379.137018,53.2652272 C379.137018,56.8080287 376.257864,59.3810471 372.712143,59.3810471 L361.986858,59.3810471 C359.322332,60.1974772 357.379339,62.4463632 357.379339,65.3574551 C357.379339,68.9011279 360.257621,71.6153007 363.804215,71.6153007 L463.703003,71.6153007 C467.246979,71.6153007 470.123516,69.0422824 470.123516,65.4986096 C470.123516,61.9523228 467.246979,59.3810471 463.703003,59.3810471" id="Fill-150" fill="#D1235C"></path>
                        <path d="M7.0445916,35.198421 L23.5639552,35.198421 L32.5469153,35.198421 L35.6092881,35.198421 C38.9944751,35.198421 41.7340337,37.9387335 41.7340337,41.3151121 C41.7340337,44.6932335 38.9944751,47.4318033 35.6092881,47.4318033 L32.5469153,47.4318033 L23.5639552,47.4318033 L20.7197001,47.4318033 C17.173106,47.4318033 14.2983145,49.800932 14.2983145,53.3480901 C14.2983145,56.1006011 16.0388939,58.8504982 18.4783224,58.8504982 L45.4778062,58.8504982 L90.8061581,58.8504982 L140.489012,58.8504982 C142.896159,58.8504982 144.602712,56.0666195 144.602712,53.3376342 C144.602712,49.9429577 141.956508,47.4318033 138.610582,47.4318033 L98.0354518,47.4318033 C94.4897302,47.4318033 91.6105763,44.8587849 91.6105763,41.3151121 C91.6105763,37.7714393 94.4897302,35.198421 98.0354518,35.198421 L108.760736,35.198421 C111.42439,34.3811195 113.36651,32.1322335 113.36651,29.2228842 C113.36651,25.6774687 110.488229,22.9624246 106.942507,22.9624246 L7.0445916,22.9624246 C3.5006149,22.9624246 0.623205947,25.535443 0.623205947,29.0791158 C0.623205947,32.6254026 3.5006149,35.198421 7.0445916,35.198421" id="Fill-152" fill="#EA527D"></path>
                    </g>
                    <g id="right" transform="translate(2229.500000, 124.500000) scale(1, -1) translate(-2229.500000, -124.500000) translate(1518.000000, 6.000000)">
                        <path d="M342.425276,206.38204 L316.925569,206.38204 C313.241997,206.38204 311.048606,203.225235 311.048606,200.26622 C311.048606,197.301977 313.040457,194.148657 316.925569,194.148657 L328.749295,194.148657 C332.301124,194.148657 335.17417,191.368264 335.17417,187.82372 C335.17417,185.070338 333.437081,182.729962 330.994162,181.913532 L303.994679,181.913532 C300.393991,181.913532 297.474704,179.389308 297.474704,175.795099 C297.474704,172.202632 300.393991,169.678407 303.994679,169.678407 L332.775748,169.678407 C335.375711,168.861977 337.264611,166.167845 337.264611,163.30119 C337.264611,159.757518 334.390691,156.628595 330.838863,156.628595 L285.133603,156.628595 L237.622329,156.628595 L191.914452,156.628595 C188.366113,156.628595 185.488704,159.64686 185.488704,163.18879 C185.488704,166.422271 187.884509,168.861977 190.994868,169.678407 L207.960064,169.678407 L212.960195,169.678407 L252.029441,169.678407 C255.391943,169.678407 258.118415,172.400422 258.118415,175.759374 C258.118415,179.119198 255.391943,181.842955 252.029441,181.842955 L213.942597,181.842955 C213.621528,181.883907 213.293479,181.913532 212.960195,181.913532 L208.9826,181.913532 L163.275596,181.913532 C160.870194,182.729962 159.163641,185.106062 159.163641,187.833304 C159.163641,191.231466 161.8081,194.148657 165.153153,194.148657 L187.710888,194.148657 C187.960414,194.116418 188.204706,194.071981 188.462958,194.071981 L232.531462,194.071981 C235.893964,194.071981 238.620436,196.794867 238.620436,200.152076 C238.620436,203.5119 235.893964,206.233915 232.531462,206.233915 L207.152156,206.233915 C206.695854,206.328018 206.222102,206.38204 205.730029,206.38204 L195.003872,206.38204 C195.003872,206.38204 190.398098,207.658529 190.398098,213.174007 C190.398098,216.719422 193.271145,220.247411 196.820356,220.247411 L242.528233,220.247411 L296.717399,220.247411 L342.425276,220.247411 C345.973615,220.247411 348.851896,216.857962 348.851896,213.315161 C348.851896,209.769746 345.973615,206.38204 342.425276,206.38204" id="Fill-135" fill="#EA527D"></path>
                        <path d="M1415.85071,50.4653162 L1390.35188,50.4653162 C1389.88423,50.4653162 1389.44015,50.4130368 1389.02223,50.3206765 L1351.98933,50.3206765 C1348.62596,50.3206765 1345.89949,47.5951765 1345.89949,44.2362243 C1345.89949,40.8781434 1348.62596,38.1561287 1351.98933,38.1561287 L1396.05697,38.1561287 C1396.31522,38.1561287 1396.55951,38.2005662 1396.81078,38.2310625 L1402.17473,38.2310625 C1405.72656,38.2310625 1408.60135,35.4532831 1408.60135,31.9069963 C1408.60135,29.1544853 1406.86252,26.813239 1404.42134,25.9976801 L1377.42011,25.9976801 C1377.08421,25.9976801 1376.75965,25.9680551 1376.43684,25.9262316 L1371.48644,25.9262316 C1368.12307,25.9262316 1365.39659,23.2024743 1365.39659,19.8435221 C1365.39659,16.4854412 1368.12307,13.7625551 1371.48644,13.7625551 L1377.42011,13.7625551 L1406.20118,13.7625551 C1408.80202,12.9469963 1410.69005,10.2519926 1410.69005,7.38533824 C1410.69005,3.84166544 1407.81613,0.712742647 1404.26517,0.712742647 L1358.55817,0.712742647 L1311.04777,0.712742647 L1265.33989,0.712742647 C1261.79417,0.712742647 1258.91676,3.73013603 1258.91676,7.2729375 C1258.91676,10.5038051 1261.31082,12.9469963 1264.42205,13.7625551 L1281.38637,13.7625551 L1286.38476,13.7625551 L1325.45575,13.7625551 C1328.81825,13.7625551 1331.54298,16.4854412 1331.54298,19.8435221 C1331.54298,23.2024743 1328.81825,25.9262316 1325.45575,25.9262316 L1287.36803,25.9262316 C1287.04784,25.9680551 1286.71979,25.9976801 1286.38476,25.9976801 L1282.40978,25.9976801 L1236.70103,25.9976801 C1234.29737,26.813239 1232.58995,29.1902096 1232.58995,31.9165809 C1232.58995,35.315614 1235.23528,38.2310625 1238.57946,38.2310625 L1261.1372,38.2310625 C1261.38672,38.2005662 1261.63189,38.1561287 1261.88927,38.1561287 L1305.95777,38.1561287 C1309.32027,38.1561287 1312.04674,40.8781434 1312.04674,44.2362243 C1312.04674,47.5951765 1309.32027,50.3206765 1305.95777,50.3206765 L1280.57846,50.3206765 C1280.12129,50.4121654 1279.64754,50.4653162 1279.15808,50.4653162 L1268.43018,50.4653162 C1268.43018,50.4653162 1263.82528,51.7435478 1263.82528,57.2572831 C1263.82528,60.8044412 1266.6992,64.3315588 1270.24754,64.3315588 L1315.95367,64.3315588 L1370.14196,64.3315588 L1415.85071,64.3315588 C1419.39905,64.3315588 1422.27733,60.941239 1422.27733,57.3993088 C1422.27733,53.8538934 1419.39905,50.4653162 1415.85071,50.4653162" id="Fill-137" fill="#E9527D"></path>
                        <path d="M1075.57093,223.635727 L1027.64349,223.635727 C1024.09602,223.635727 1021.2221,220.245407 1021.2221,216.704348 C1021.2221,213.161547 1024.09602,209.772969 1027.64349,209.772969 L1048.14393,209.772969 L1048.02964,209.772969 L1059.85598,209.772969 C1063.40432,209.772969 1066.2826,207.402098 1066.2826,203.855811 C1066.2826,201.102429 1064.5429,199.167219 1062.10172,198.352532 L1035.09962,198.352532 C1031.50155,198.352532 1028.58139,195.419657 1028.58139,191.82719 C1028.58139,188.231238 1031.50155,185.303591 1035.09962,185.303591 L1063.62419,185.303591 C1066.35676,184.488032 1068.37043,181.855764 1068.37043,178.893264 C1068.37043,175.345234 1065.49302,172.252907 1061.94381,172.252907 L968.723783,172.252907 C965.177189,172.252907 962.301525,175.529083 962.301525,179.07537 C962.301525,181.679756 963.861503,183.672473 966.095029,185.303591 L973.634922,185.303591 C977.235609,185.303591 980.151407,188.231238 980.151407,191.82719 C980.151407,195.419657 977.235609,198.352532 973.634922,198.352532 L939.880769,198.352532 C937.58966,199.167219 935.977334,201.167778 935.977334,203.816602 C935.977334,207.357661 938.852125,209.772969 942.399592,209.772969 L982.199968,209.772969 L982.086547,209.772969 L982.544594,209.772969 C986.090316,209.772969 988.967725,213.161547 988.967725,216.704348 C988.967725,220.245407 986.090316,223.635727 982.544594,223.635727 L971.598575,223.635727 C969.049215,224.453028 967.210046,227.154131 967.210046,229.985061 C967.210046,233.529606 970.087455,236.687282 973.634922,236.687282 L1073.53284,236.687282 C1077.0803,236.687282 1079.95684,233.529606 1079.95684,229.985061 C1079.95684,227.154131 1078.1168,224.453028 1075.57093,223.635727" id="Fill-140" fill="#EA527D"></path>
                        <path d="M1028.37052,0.713091176 L1043.88741,0.713091176" id="Stroke-142" stroke="#D1235C" stroke-width="13.721" stroke-linecap="round"></path>
                        <path d="M700.054927,94.1480757 L798.874468,94.1480757" id="Stroke-144" stroke="#D1235C" stroke-width="13.721" stroke-linecap="round"></path>
                        <path d="M169.717746,95.4575879 L236.685121,95.4575879" id="Stroke-146" stroke="#D1235C" stroke-width="13.721" stroke-linecap="round"></path>
                        <path d="M968.694905,88.819671 L952.174668,88.819671 L943.190836,88.819671 L940.128463,88.819671 C936.743276,88.819671 934.0011,86.0793585 934.0011,82.7029798 C934.0011,79.3231158 936.743276,76.5862886 940.128463,76.5862886 L943.190836,76.5862886 L952.174668,76.5862886 L955.017179,76.5862886 C958.565518,76.5862886 961.437692,74.2154173 961.437692,70.6691305 C961.437692,67.9174908 959.697985,65.1658511 957.261174,65.1658511 L930.260817,65.1658511 L884.932466,65.1658511 L835.248739,65.1658511 C832.842464,65.1658511 831.134166,67.9514724 831.134166,70.6787151 C831.134166,74.0768768 833.778626,76.5862886 837.126296,76.5862886 L877.702299,76.5862886 C881.250638,76.5862886 884.128047,79.1575643 884.128047,82.7029798 C884.128047,86.2466526 881.250638,88.819671 877.702299,88.819671 L866.977015,88.819671 C864.313361,89.6352298 862.371241,91.8849871 862.371241,94.7952077 C862.371241,98.3406232 865.247778,101.054796 868.794372,101.054796 L968.694905,101.054796 C972.238881,101.054796 975.115418,98.4800349 975.115418,94.9372335 C975.115418,91.3909467 972.238881,88.819671 968.694905,88.819671" id="Fill-148" fill="#EA527D"></path>
                        <path d="M463.703003,59.3810471 L447.182767,59.3810471 L438.201552,59.3810471 L435.139179,59.3810471 C431.753119,59.3810471 429.011816,56.6424772 429.011816,53.2652272 C429.011816,49.8844919 431.753119,47.1476647 435.139179,47.1476647 L438.201552,47.1476647 L447.182767,47.1476647 L450.026149,47.1476647 C453.574488,47.1476647 456.44928,44.7767934 456.44928,41.2305066 C456.44928,38.4779956 454.709573,35.7298412 452.270144,35.7298412 L425.269788,35.7298412 L379.939691,35.7298412 L330.255965,35.7298412 C327.851435,35.7298412 326.144882,38.5128485 326.144882,41.2400912 C326.144882,44.6373816 328.790214,47.1476647 332.135267,47.1476647 L372.712143,47.1476647 C376.257864,47.1476647 379.137018,49.7198118 379.137018,53.2652272 C379.137018,56.8080287 376.257864,59.3810471 372.712143,59.3810471 L361.986858,59.3810471 C359.322332,60.1974772 357.379339,62.4463632 357.379339,65.3574551 C357.379339,68.9011279 360.257621,71.6153007 363.804215,71.6153007 L463.703003,71.6153007 C467.246979,71.6153007 470.123516,69.0422824 470.123516,65.4986096 C470.123516,61.9523228 467.246979,59.3810471 463.703003,59.3810471" id="Fill-150" fill="#D1235C"></path>
                        <path d="M7.0445916,35.198421 L23.5639552,35.198421 L32.5469153,35.198421 L35.6092881,35.198421 C38.9944751,35.198421 41.7340337,37.9387335 41.7340337,41.3151121 C41.7340337,44.6932335 38.9944751,47.4318033 35.6092881,47.4318033 L32.5469153,47.4318033 L23.5639552,47.4318033 L20.7197001,47.4318033 C17.173106,47.4318033 14.2983145,49.800932 14.2983145,53.3480901 C14.2983145,56.1006011 16.0388939,58.8504982 18.4783224,58.8504982 L45.4778062,58.8504982 L90.8061581,58.8504982 L140.489012,58.8504982 C142.896159,58.8504982 144.602712,56.0666195 144.602712,53.3376342 C144.602712,49.9429577 141.956508,47.4318033 138.610582,47.4318033 L98.0354518,47.4318033 C94.4897302,47.4318033 91.6105763,44.8587849 91.6105763,41.3151121 C91.6105763,37.7714393 94.4897302,35.198421 98.0354518,35.198421 L108.760736,35.198421 C111.42439,34.3811195 113.36651,32.1322335 113.36651,29.2228842 C113.36651,25.6774687 110.488229,22.9624246 106.942507,22.9624246 L7.0445916,22.9624246 C3.5006149,22.9624246 0.623205947,25.535443 0.623205947,29.0791158 C0.623205947,32.6254026 3.5006149,35.198421 7.0445916,35.198421" id="Fill-152" fill="#EA527D"></path>
                    </g>
                </g>
            </g>
        </g>
    </g>
</svg>
