<svg id="hand" width="473px" height="275px" viewBox="0 0 473 275" version="1.1" xmlns="http://www.w3.org/2000/svg" xmlns:xlink="http://www.w3.org/1999/xlink" xmlns:sketch="http://www.bohemiancoding.com/sketch/ns">
    <defs>
        <path id="path-1" d="M0.133,107.262 L214.926,107.262 L214.926,0.395 L0.133,0.395"></path>
        <path id="path-3" d="M0.133,107.262 L214.926,107.262 L214.926,0.395 L0.133,0.395"></path>
        <path id="path-5" d="M0.133,107.262 L214.926,107.262 L214.926,0.395 L0.133,0.395"></path>
        <path id="path-7" d="M0.133,107.262 L214.926,107.262 L214.926,0.395 L0.133,0.395"></path>
        <path id="path-9" d="M0.133,107.262 L214.926,107.262 L214.926,0.395 L0.133,0.395"></path>
        <path id="path-11" d="M0.133,107.262 L214.926,107.262 L214.926,0.395 L0.133,0.395"></path>
        <path id="path-13" d="M0.133,107.262 L214.926,107.262 L214.926,0.395 L0.133,0.395"></path>
        <path id="path-15" d="M0.133,107.262 L214.926,107.262 L214.926,0.395 L0.133,0.395"></path>
        <path id="path-17" d="M0.133,107.262 L214.926,107.262 L214.926,0.395 L0.133,0.395"></path>
        <path id="path-19" d="M0.133,107.262 L214.926,107.262 L214.926,0.395 L0.133,0.395"></path>
        <path id="path-21" d="M0.133,107.262 L214.926,107.262 L214.926,0.395 L0.133,0.395"></path>
        <path id="path-23" d="M0.133,107.262 L214.926,107.262 L214.926,0.395 L0.133,0.395"></path>
        <path id="path-25" d="M0.133,107.262 L214.926,107.262 L214.926,0.395 L0.133,0.395"></path>
        <path id="path-27" d="M0.133,107.262 L214.926,107.262 L214.926,0.395 L0.133,0.395"></path>
        <path id="path-29" d="M0.133,107.262 L214.926,107.262 L214.926,0.395 L0.133,0.395"></path>
        <path id="path-31" d="M0.133,107.262 L214.926,107.262 L214.926,0.395 L0.133,0.395"></path>
        <path id="path-33" d="M0.133,107.262 L214.926,107.262 L214.926,0.395 L0.133,0.395"></path>
        <path id="path-35" d="M0.133,107.262 L214.926,107.262 L214.926,0.395 L0.133,0.395"></path>
        <path id="path-37" d="M0.133,107.262 L214.926,107.262 L214.926,0.395 L0.133,0.395"></path>
        <path id="path-39" d="M0.133,107.262 L214.926,107.262 L214.926,0.395 L0.133,0.395"></path>
        <path id="path-41" d="M0.133,107.262 L214.926,107.262 L214.926,0.395 L0.133,0.395"></path>
        <path id="path-43" d="M0.133,107.262 L214.926,107.262 L214.926,0.395 L0.133,0.395"></path>
        <path id="path-45" d="M0.133,107.262 L214.926,107.262 L214.926,0.395 L0.133,0.395"></path>
        <path id="path-47" d="M0.133,107.262 L214.926,107.262 L214.926,0.395 L0.133,0.395"></path>
        <path id="path-49" d="M0.133,107.262 L214.926,107.262 L214.926,0.395 L0.133,0.395"></path>
        <path id="path-51" d="M0.133,107.262 L214.926,107.262 L214.926,0.395 L0.133,0.395"></path>
        <path id="path-53" d="M0.133,107.262 L214.926,107.262 L214.926,0.395 L0.133,0.395"></path>
        <path id="path-55" d="M0.133,107.262 L214.926,107.262 L214.926,0.395 L0.133,0.395"></path>
        <path id="path-57" d="M0.133,107.262 L214.926,107.262 L214.926,0.395 L0.133,0.395"></path>
        <path id="path-59" d="M0.133,107.262 L214.926,107.262 L214.926,0.395 L0.133,0.395"></path>
        <path id="path-61" d="M0.133,107.262 L214.926,107.262 L214.926,0.395 L0.133,0.395"></path>
        <path id="path-63" d="M0.133,107.262 L214.926,107.262 L214.926,0.395 L0.133,0.395"></path>
        <path id="path-65" d="M0.133,107.262 L214.926,107.262 L214.926,0.395 L0.133,0.395"></path>
        <path id="path-67" d="M0.133,107.262 L214.926,107.262 L214.926,0.395 L0.133,0.395"></path>
        <path id="path-69" d="M0.133,107.262 L214.926,107.262 L214.926,0.395 L0.133,0.395"></path>
        <path id="path-71" d="M0.133,107.262 L214.926,107.262 L214.926,0.395 L0.133,0.395"></path>
        <path id="path-73" d="M0.133,107.262 L214.926,107.262 L214.926,0.395 L0.133,0.395"></path>
        <path id="path-75" d="M0.133,107.262 L214.926,107.262 L214.926,0.395 L0.133,0.395"></path>
        <path id="path-77" d="M0.133,107.262 L214.926,107.262 L214.926,0.395 L0.133,0.395"></path>
        <path id="path-79" d="M0.133,107.262 L214.926,107.262 L214.926,0.395 L0.133,0.395"></path>
        <path id="path-81" d="M0.133,107.262 L214.926,107.262 L214.926,0.395 L0.133,0.395"></path>
        <path id="path-83" d="M0.133,107.262 L214.926,107.262 L214.926,0.395 L0.133,0.395"></path>
        <path id="path-85" d="M0.133,107.262 L214.926,107.262 L214.926,0.395 L0.133,0.395"></path>
        <path id="path-87" d="M0.133,107.262 L214.926,107.262 L214.926,0.395 L0.133,0.395"></path>
        <path id="path-89" d="M0.133,107.262 L214.926,107.262 L214.926,0.395 L0.133,0.395"></path>
        <path id="path-91" d="M0.133,107.262 L214.926,107.262 L214.926,0.395 L0.133,0.395"></path>
        <path id="path-93" d="M0.133,107.262 L214.926,107.262 L214.926,0.395 L0.133,0.395"></path>
        <path id="path-95" d="M0.133,107.262 L214.926,107.262 L214.926,0.395 L0.133,0.395"></path>
        <path id="path-97" d="M0.133,107.262 L214.926,107.262 L214.926,0.395 L0.133,0.395"></path>
        <path id="path-99" d="M0.133,107.262 L214.926,107.262 L214.926,0.395 L0.133,0.395"></path>
        <path id="path-101" d="M0.133,107.262 L214.926,107.262 L214.926,0.395 L0.133,0.395"></path>
        <path id="path-103" d="M0.133,107.262 L214.926,107.262 L214.926,0.395 L0.133,0.395"></path>
    </defs>
    <g id="Page-1" stroke="none" stroke-width="1" fill="none" fill-rule="evenodd" sketch:type="MSPage">
        <g id="Desktop-HD" sketch:type="MSArtboardGroup" transform="translate(-967.000000, -311.000000)">
            <g id="hand_complete" sketch:type="MSLayerGroup" transform="translate(968.000000, 324.000000)">
                <g id="Hands" transform="translate(77.000000, 0.000000)">
                    <g id="Group" sketch:type="MSShapeGroup">
                        <path d="M104.6414,124.8291 L322.8644,124.8291" id="Stroke-1" stroke="#F6B3A1" stroke-width="106.866" stroke-linejoin="round"></path>
                        <path d="M180.133,178.262 L394.926,178.262 L394.926,71.395 L180.133,71.395 L180.133,178.262 Z" id="Fill-3" fill="#010202"></path>
                        <path d="M76.2421,56.1221 L0.2691,52.9361" id="Stroke-4" stroke="#EE8A6E" stroke-width="29.552" stroke-linecap="round"></path>
                        <path d="M67.5497,40.2432 L16.8777,22.3942" id="Stroke-6" stroke="#F29884" stroke-width="29.552" stroke-linecap="round"></path>
                        <path d="M113.8035,95.9375 L82.2615,40.2435 L41.9515,0.7705" id="Stroke-7" stroke="#F6B3A1" stroke-width="26.032" stroke-linecap="round" stroke-linejoin="round"></path>
                        <g id="Group-15" transform="translate(7.000000, 59.000000)">
                            <path d="M0.3728,97.6592 C11.4088,114.0262 30.1108,124.7812 51.3328,124.7812 C85.2568,124.7812 112.7598,97.2772 112.7598,63.3612 C112.7598,29.4322 85.2568,1.9312 51.3328,1.9312 C30.1278,1.9312 11.4388,12.6712 0.4008,29.0092" id="Stroke-8" stroke="#F6B3A1" stroke-width="29.552" stroke-linecap="round"></path>
                            <path d="M173.124,0.879 L136.552,0.879 L136.552,130.55 L173.124,130.55 L173.124,0.879 Z" id="Fill-10" fill="#FEFEFE"></path>
                            <path d="M136.552,12.516 L131.563,12.516 L131.563,118.913 L136.552,118.913 L136.552,12.516 Z" id="Fill-12" fill="#F29884"></path>
                            <path d="M155.1863,25.1817 C159.2193,25.1817 162.4973,21.9117 162.4973,17.8717 C162.4973,13.8367 159.2193,10.5667 155.1863,10.5667 C151.1493,10.5667 147.8803,13.8367 147.8803,17.8717 C147.8803,21.9117 151.1493,25.1817 155.1863,25.1817" id="Fill-13" fill="#CCCBCB"></path>
                            <path d="M155.1863,23.8145 C159.2193,23.8145 162.4973,20.5415 162.4973,16.5025 C162.4973,12.4685 159.2193,9.1965 155.1863,9.1965 C151.1493,9.1965 147.8803,12.4685 147.8803,16.5025 C147.8803,20.5415 151.1493,23.8145 155.1863,23.8145" id="Fill-14" fill="#E6E5E5"></path>
                        </g>
                    </g>
                    <g id="Group-172" transform="translate(180.000000, 71.000000)">
                        <g id="Group-18">
                            <mask id="mask-2" sketch:name="Clip 17" fill="white">
                                <use xlink:href="#path-1"></use>
                            </mask>
                            <g id="Clip-17"></g>
                            <path d="M-152.7131,138.8526 L15.3449,-29.2094" id="Stroke-16" stroke="#1D1812" stroke-width="2.873" sketch:type="MSShapeGroup" mask="url(#mask-2)"></path>
                        </g>
                        <g id="Group-21">
                            <mask id="mask-4" sketch:name="Clip 20" fill="white">
                                <use xlink:href="#path-3"></use>
                            </mask>
                            <g id="Clip-20"></g>
                            <path d="M-138.3508,138.8526 L29.7092,-29.2094" id="Stroke-19" stroke="#1D1812" stroke-width="2.873" sketch:type="MSShapeGroup" mask="url(#mask-4)"></path>
                        </g>
                        <g id="Group-24">
                            <mask id="mask-6" sketch:name="Clip 23" fill="white">
                                <use xlink:href="#path-5"></use>
                            </mask>
                            <g id="Clip-23"></g>
                            <path d="M-123.9875,138.8526 L44.0745,-29.2094" id="Stroke-22" stroke="#1D1812" stroke-width="2.873" sketch:type="MSShapeGroup" mask="url(#mask-6)"></path>
                        </g>
                        <g id="Group-27">
                            <mask id="mask-8" sketch:name="Clip 26" fill="white">
                                <use xlink:href="#path-7"></use>
                            </mask>
                            <g id="Clip-26"></g>
                            <path d="M-109.6213,138.8526 L58.4377,-29.2094" id="Stroke-25" stroke="#1D1812" stroke-width="2.873" sketch:type="MSShapeGroup" mask="url(#mask-8)"></path>
                        </g>
                        <g id="Group-30">
                            <mask id="mask-10" sketch:name="Clip 29" fill="white">
                                <use xlink:href="#path-9"></use>
                            </mask>
                            <g id="Clip-29"></g>
                            <path d="M-95.2551,138.8526 L72.8039,-29.2094" id="Stroke-28" stroke="#1D1812" stroke-width="2.873" sketch:type="MSShapeGroup" mask="url(#mask-10)"></path>
                        </g>
                        <g id="Group-33">
                            <mask id="mask-12" sketch:name="Clip 32" fill="white">
                                <use xlink:href="#path-11"></use>
                            </mask>
                            <g id="Clip-32"></g>
                            <path d="M-80.8918,138.8526 L87.1672,-29.2094" id="Stroke-31" stroke="#1D1812" stroke-width="2.873" sketch:type="MSShapeGroup" mask="url(#mask-12)"></path>
                        </g>
                        <g id="Group-36">
                            <mask id="mask-14" sketch:name="Clip 35" fill="white">
                                <use xlink:href="#path-13"></use>
                            </mask>
                            <g id="Clip-35"></g>
                            <path d="M-66.5294,138.8526 L101.5316,-29.2094" id="Stroke-34" stroke="#1D1812" stroke-width="2.873" sketch:type="MSShapeGroup" mask="url(#mask-14)"></path>
                        </g>
                        <g id="Group-39">
                            <mask id="mask-16" sketch:name="Clip 38" fill="white">
                                <use xlink:href="#path-15"></use>
                            </mask>
                            <g id="Clip-38"></g>
                            <path d="M-52.1633,138.8526 L115.8947,-29.2094" id="Stroke-37" stroke="#1D1812" stroke-width="2.873" sketch:type="MSShapeGroup" mask="url(#mask-16)"></path>
                        </g>
                        <g id="Group-42">
                            <mask id="mask-18" sketch:name="Clip 41" fill="white">
                                <use xlink:href="#path-17"></use>
                            </mask>
                            <g id="Clip-41"></g>
                            <path d="M-37.802,138.8526 L130.259,-29.2094" id="Stroke-40" stroke="#1D1812" stroke-width="2.873" sketch:type="MSShapeGroup" mask="url(#mask-18)"></path>
                        </g>
                        <g id="Group-45">
                            <mask id="mask-20" sketch:name="Clip 44" fill="white">
                                <use xlink:href="#path-19"></use>
                            </mask>
                            <g id="Clip-44"></g>
                            <path d="M-23.4377,138.8526 L144.6223,-29.2094" id="Stroke-43" stroke="#1D1812" stroke-width="2.873" sketch:type="MSShapeGroup" mask="url(#mask-20)"></path>
                        </g>
                        <g id="Group-48">
                            <mask id="mask-22" sketch:name="Clip 47" fill="white">
                                <use xlink:href="#path-21"></use>
                            </mask>
                            <g id="Clip-47"></g>
                            <path d="M-9.0715,138.8526 L158.9875,-29.2094" id="Stroke-46" stroke="#1D1812" stroke-width="2.873" sketch:type="MSShapeGroup" mask="url(#mask-22)"></path>
                        </g>
                        <g id="Group-51">
                            <mask id="mask-24" sketch:name="Clip 50" fill="white">
                                <use xlink:href="#path-23"></use>
                            </mask>
                            <g id="Clip-50"></g>
                            <path d="M5.2918,138.8526 L173.3528,-29.2094" id="Stroke-49" stroke="#1D1812" stroke-width="2.873" sketch:type="MSShapeGroup" mask="url(#mask-24)"></path>
                        </g>
                        <g id="Group-54">
                            <mask id="mask-26" sketch:name="Clip 53" fill="white">
                                <use xlink:href="#path-25"></use>
                            </mask>
                            <g id="Clip-53"></g>
                            <path d="M19.657,138.8526 L187.716,-29.2094" id="Stroke-52" stroke="#1D1812" stroke-width="2.873" sketch:type="MSShapeGroup" mask="url(#mask-26)"></path>
                        </g>
                        <g id="Group-57">
                            <mask id="mask-28" sketch:name="Clip 56" fill="white">
                                <use xlink:href="#path-27"></use>
                            </mask>
                            <g id="Clip-56"></g>
                            <path d="M34.0204,138.8526 L202.0794,-29.2094" id="Stroke-55" stroke="#1D1812" stroke-width="2.873" sketch:type="MSShapeGroup" mask="url(#mask-28)"></path>
                        </g>
                        <g id="Group-60">
                            <mask id="mask-30" sketch:name="Clip 59" fill="white">
                                <use xlink:href="#path-29"></use>
                            </mask>
                            <g id="Clip-59"></g>
                            <path d="M48.3836,138.8526 L216.4446,-29.2094" id="Stroke-58" stroke="#1D1812" stroke-width="2.873" sketch:type="MSShapeGroup" mask="url(#mask-30)"></path>
                        </g>
                        <g id="Group-63">
                            <mask id="mask-32" sketch:name="Clip 62" fill="white">
                                <use xlink:href="#path-31"></use>
                            </mask>
                            <g id="Clip-62"></g>
                            <path d="M62.7478,138.8526 L230.8058,-29.2094" id="Stroke-61" stroke="#1D1812" stroke-width="2.873" sketch:type="MSShapeGroup" mask="url(#mask-32)"></path>
                        </g>
                        <g id="Group-66">
                            <mask id="mask-34" sketch:name="Clip 65" fill="white">
                                <use xlink:href="#path-33"></use>
                            </mask>
                            <g id="Clip-65"></g>
                            <path d="M77.1101,138.8526 L245.1711,-29.2094" id="Stroke-64" stroke="#1D1812" stroke-width="2.873" sketch:type="MSShapeGroup" mask="url(#mask-34)"></path>
                        </g>
                        <g id="Group-69">
                            <mask id="mask-36" sketch:name="Clip 68" fill="white">
                                <use xlink:href="#path-35"></use>
                            </mask>
                            <g id="Clip-68"></g>
                            <path d="M91.4754,138.8526 L259.5364,-29.2094" id="Stroke-67" stroke="#1D1812" stroke-width="2.873" sketch:type="MSShapeGroup" mask="url(#mask-36)"></path>
                        </g>
                        <g id="Group-72">
                            <mask id="mask-38" sketch:name="Clip 71" fill="white">
                                <use xlink:href="#path-37"></use>
                            </mask>
                            <g id="Clip-71"></g>
                            <path d="M105.8406,138.8526 L273.8996,-29.2094" id="Stroke-70" stroke="#1D1812" stroke-width="2.873" sketch:type="MSShapeGroup" mask="url(#mask-38)"></path>
                        </g>
                        <g id="Group-75">
                            <mask id="mask-40" sketch:name="Clip 74" fill="white">
                                <use xlink:href="#path-39"></use>
                            </mask>
                            <g id="Clip-74"></g>
                            <path d="M120.2039,138.8526 L288.2649,-29.2094" id="Stroke-73" stroke="#1D1812" stroke-width="2.873" sketch:type="MSShapeGroup" mask="url(#mask-40)"></path>
                        </g>
                        <g id="Group-78">
                            <mask id="mask-42" sketch:name="Clip 77" fill="white">
                                <use xlink:href="#path-41"></use>
                            </mask>
                            <g id="Clip-77"></g>
                            <path d="M134.5692,138.8526 L302.6292,-29.2094" id="Stroke-76" stroke="#1D1812" stroke-width="2.873" sketch:type="MSShapeGroup" mask="url(#mask-42)"></path>
                        </g>
                        <g id="Group-81">
                            <mask id="mask-44" sketch:name="Clip 80" fill="white">
                                <use xlink:href="#path-43"></use>
                            </mask>
                            <g id="Clip-80"></g>
                            <path d="M148.9324,138.8526 L316.9924,-29.2094" id="Stroke-79" stroke="#1D1812" stroke-width="2.873" sketch:type="MSShapeGroup" mask="url(#mask-44)"></path>
                        </g>
                        <g id="Group-84">
                            <mask id="mask-46" sketch:name="Clip 83" fill="white">
                                <use xlink:href="#path-45"></use>
                            </mask>
                            <g id="Clip-83"></g>
                            <path d="M163.2976,138.8526 L331.3546,-29.2094" id="Stroke-82" stroke="#1D1812" stroke-width="2.873" sketch:type="MSShapeGroup" mask="url(#mask-46)"></path>
                        </g>
                        <g id="Group-87">
                            <mask id="mask-48" sketch:name="Clip 86" fill="white">
                                <use xlink:href="#path-47"></use>
                            </mask>
                            <g id="Clip-86"></g>
                            <path d="M177.6589,138.8526 L345.7199,-29.2094" id="Stroke-85" stroke="#1D1812" stroke-width="2.873" sketch:type="MSShapeGroup" mask="url(#mask-48)"></path>
                        </g>
                        <g id="Group-90">
                            <mask id="mask-50" sketch:name="Clip 89" fill="white">
                                <use xlink:href="#path-49"></use>
                            </mask>
                            <g id="Clip-89"></g>
                            <path d="M192.0233,138.8526 L360.0833,-29.2094" id="Stroke-88" stroke="#1D1812" stroke-width="2.873" sketch:type="MSShapeGroup" mask="url(#mask-50)"></path>
                        </g>
                        <g id="Group-93">
                            <mask id="mask-52" sketch:name="Clip 92" fill="white">
                                <use xlink:href="#path-51"></use>
                            </mask>
                            <g id="Clip-92"></g>
                            <path d="M206.3875,138.8526 L374.4485,-29.2094" id="Stroke-91" stroke="#1D1812" stroke-width="2.873" sketch:type="MSShapeGroup" mask="url(#mask-52)"></path>
                        </g>
                        <g id="Group-96">
                            <mask id="mask-54" sketch:name="Clip 95" fill="white">
                                <use xlink:href="#path-53"></use>
                            </mask>
                            <g id="Clip-95"></g>
                            <path d="M-152.7131,-36.1338 L15.3449,131.9262" id="Stroke-94" stroke="#1D1812" stroke-width="2.873" sketch:type="MSShapeGroup" mask="url(#mask-54)"></path>
                        </g>
                        <g id="Group-99">
                            <mask id="mask-56" sketch:name="Clip 98" fill="white">
                                <use xlink:href="#path-55"></use>
                            </mask>
                            <g id="Clip-98"></g>
                            <path d="M-138.3508,-36.1338 L29.7092,131.9262" id="Stroke-97" stroke="#1D1812" stroke-width="2.873" sketch:type="MSShapeGroup" mask="url(#mask-56)"></path>
                        </g>
                        <g id="Group-102">
                            <mask id="mask-58" sketch:name="Clip 101" fill="white">
                                <use xlink:href="#path-57"></use>
                            </mask>
                            <g id="Clip-101"></g>
                            <path d="M-123.9875,-36.1338 L44.0745,131.9262" id="Stroke-100" stroke="#1D1812" stroke-width="2.873" sketch:type="MSShapeGroup" mask="url(#mask-58)"></path>
                        </g>
                        <g id="Group-105">
                            <mask id="mask-60" sketch:name="Clip 104" fill="white">
                                <use xlink:href="#path-59"></use>
                            </mask>
                            <g id="Clip-104"></g>
                            <path d="M-109.6213,-36.1338 L58.4377,131.9262" id="Stroke-103" stroke="#1D1812" stroke-width="2.873" sketch:type="MSShapeGroup" mask="url(#mask-60)"></path>
                        </g>
                        <g id="Group-108">
                            <mask id="mask-62" sketch:name="Clip 107" fill="white">
                                <use xlink:href="#path-61"></use>
                            </mask>
                            <g id="Clip-107"></g>
                            <path d="M-95.2551,-36.1338 L72.8039,131.9262" id="Stroke-106" stroke="#1D1812" stroke-width="2.873" sketch:type="MSShapeGroup" mask="url(#mask-62)"></path>
                        </g>
                        <g id="Group-111">
                            <mask id="mask-64" sketch:name="Clip 110" fill="white">
                                <use xlink:href="#path-63"></use>
                            </mask>
                            <g id="Clip-110"></g>
                            <path d="M-80.8918,-36.1338 L87.1672,131.9262" id="Stroke-109" stroke="#1D1812" stroke-width="2.873" sketch:type="MSShapeGroup" mask="url(#mask-64)"></path>
                        </g>
                        <g id="Group-114">
                            <mask id="mask-66" sketch:name="Clip 113" fill="white">
                                <use xlink:href="#path-65"></use>
                            </mask>
                            <g id="Clip-113"></g>
                            <path d="M-66.5294,-36.1338 L101.5316,131.9262" id="Stroke-112" stroke="#1D1812" stroke-width="2.873" sketch:type="MSShapeGroup" mask="url(#mask-66)"></path>
                        </g>
                        <g id="Group-117">
                            <mask id="mask-68" sketch:name="Clip 116" fill="white">
                                <use xlink:href="#path-67"></use>
                            </mask>
                            <g id="Clip-116"></g>
                            <path d="M-52.1633,-36.1338 L115.8947,131.9262" id="Stroke-115" stroke="#1D1812" stroke-width="2.873" sketch:type="MSShapeGroup" mask="url(#mask-68)"></path>
                        </g>
                        <g id="Group-120">
                            <mask id="mask-70" sketch:name="Clip 119" fill="white">
                                <use xlink:href="#path-69"></use>
                            </mask>
                            <g id="Clip-119"></g>
                            <path d="M-37.802,-36.1338 L130.259,131.9262" id="Stroke-118" stroke="#1D1812" stroke-width="2.873" sketch:type="MSShapeGroup" mask="url(#mask-70)"></path>
                        </g>
                        <g id="Group-123">
                            <mask id="mask-72" sketch:name="Clip 122" fill="white">
                                <use xlink:href="#path-71"></use>
                            </mask>
                            <g id="Clip-122"></g>
                            <path d="M-23.4377,-36.1338 L144.6223,131.9262" id="Stroke-121" stroke="#1D1812" stroke-width="2.873" sketch:type="MSShapeGroup" mask="url(#mask-72)"></path>
                        </g>
                        <g id="Group-126">
                            <mask id="mask-74" sketch:name="Clip 125" fill="white">
                                <use xlink:href="#path-73"></use>
                            </mask>
                            <g id="Clip-125"></g>
                            <path d="M-9.0715,-36.1338 L158.9875,131.9262" id="Stroke-124" stroke="#1D1812" stroke-width="2.873" sketch:type="MSShapeGroup" mask="url(#mask-74)"></path>
                        </g>
                        <g id="Group-129">
                            <mask id="mask-76" sketch:name="Clip 128" fill="white">
                                <use xlink:href="#path-75"></use>
                            </mask>
                            <g id="Clip-128"></g>
                            <path d="M5.2918,-36.1338 L173.3528,131.9262" id="Stroke-127" stroke="#1D1812" stroke-width="2.873" sketch:type="MSShapeGroup" mask="url(#mask-76)"></path>
                        </g>
                        <g id="Group-132">
                            <mask id="mask-78" sketch:name="Clip 131" fill="white">
                                <use xlink:href="#path-77"></use>
                            </mask>
                            <g id="Clip-131"></g>
                            <path d="M19.657,-36.1338 L187.716,131.9262" id="Stroke-130" stroke="#1D1812" stroke-width="2.873" sketch:type="MSShapeGroup" mask="url(#mask-78)"></path>
                        </g>
                        <g id="Group-135">
                            <mask id="mask-80" sketch:name="Clip 134" fill="white">
                                <use xlink:href="#path-79"></use>
                            </mask>
                            <g id="Clip-134"></g>
                            <path d="M34.0204,-36.1338 L202.0794,131.9262" id="Stroke-133" stroke="#1D1812" stroke-width="2.873" sketch:type="MSShapeGroup" mask="url(#mask-80)"></path>
                        </g>
                        <g id="Group-138">
                            <mask id="mask-82" sketch:name="Clip 137" fill="white">
                                <use xlink:href="#path-81"></use>
                            </mask>
                            <g id="Clip-137"></g>
                            <path d="M48.3836,-36.1338 L216.4446,131.9262" id="Stroke-136" stroke="#1D1812" stroke-width="2.873" sketch:type="MSShapeGroup" mask="url(#mask-82)"></path>
                        </g>
                        <g id="Group-141">
                            <mask id="mask-84" sketch:name="Clip 140" fill="white">
                                <use xlink:href="#path-83"></use>
                            </mask>
                            <g id="Clip-140"></g>
                            <path d="M62.7478,-36.1338 L230.8058,131.9262" id="Stroke-139" stroke="#1D1812" stroke-width="2.873" sketch:type="MSShapeGroup" mask="url(#mask-84)"></path>
                        </g>
                        <g id="Group-144">
                            <mask id="mask-86" sketch:name="Clip 143" fill="white">
                                <use xlink:href="#path-85"></use>
                            </mask>
                            <g id="Clip-143"></g>
                            <path d="M77.1101,-36.1338 L245.1711,131.9262" id="Stroke-142" stroke="#1D1812" stroke-width="2.873" sketch:type="MSShapeGroup" mask="url(#mask-86)"></path>
                        </g>
                        <g id="Group-147">
                            <mask id="mask-88" sketch:name="Clip 146" fill="white">
                                <use xlink:href="#path-87"></use>
                            </mask>
                            <g id="Clip-146"></g>
                            <path d="M91.4754,-36.1338 L259.5364,131.9262" id="Stroke-145" stroke="#1D1812" stroke-width="2.873" sketch:type="MSShapeGroup" mask="url(#mask-88)"></path>
                        </g>
                        <g id="Group-150">
                            <mask id="mask-90" sketch:name="Clip 149" fill="white">
                                <use xlink:href="#path-89"></use>
                            </mask>
                            <g id="Clip-149"></g>
                            <path d="M105.8406,-36.1338 L273.8996,131.9262" id="Stroke-148" stroke="#1D1812" stroke-width="2.873" sketch:type="MSShapeGroup" mask="url(#mask-90)"></path>
                        </g>
                        <g id="Group-153">
                            <mask id="mask-92" sketch:name="Clip 152" fill="white">
                                <use xlink:href="#path-91"></use>
                            </mask>
                            <g id="Clip-152"></g>
                            <path d="M120.2039,-36.1338 L288.2649,131.9262" id="Stroke-151" stroke="#1D1812" stroke-width="2.873" sketch:type="MSShapeGroup" mask="url(#mask-92)"></path>
                        </g>
                        <g id="Group-156">
                            <mask id="mask-94" sketch:name="Clip 155" fill="white">
                                <use xlink:href="#path-93"></use>
                            </mask>
                            <g id="Clip-155"></g>
                            <path d="M134.5692,-36.1338 L302.6292,131.9262" id="Stroke-154" stroke="#1D1812" stroke-width="2.873" sketch:type="MSShapeGroup" mask="url(#mask-94)"></path>
                        </g>
                        <g id="Group-159">
                            <mask id="mask-96" sketch:name="Clip 158" fill="white">
                                <use xlink:href="#path-95"></use>
                            </mask>
                            <g id="Clip-158"></g>
                            <path d="M148.9324,-36.1338 L316.9924,131.9262" id="Stroke-157" stroke="#1D1812" stroke-width="2.873" sketch:type="MSShapeGroup" mask="url(#mask-96)"></path>
                        </g>
                        <g id="Group-162">
                            <mask id="mask-98" sketch:name="Clip 161" fill="white">
                                <use xlink:href="#path-97"></use>
                            </mask>
                            <g id="Clip-161"></g>
                            <path d="M163.2976,-36.1338 L331.3546,131.9262" id="Stroke-160" stroke="#1D1812" stroke-width="2.873" sketch:type="MSShapeGroup" mask="url(#mask-98)"></path>
                        </g>
                        <g id="Group-165">
                            <mask id="mask-100" sketch:name="Clip 164" fill="white">
                                <use xlink:href="#path-99"></use>
                            </mask>
                            <g id="Clip-164"></g>
                            <path d="M177.6589,-36.1338 L345.7199,131.9262" id="Stroke-163" stroke="#1D1812" stroke-width="2.873" sketch:type="MSShapeGroup" mask="url(#mask-100)"></path>
                        </g>
                        <g id="Group-168">
                            <mask id="mask-102" sketch:name="Clip 167" fill="white">
                                <use xlink:href="#path-101"></use>
                            </mask>
                            <g id="Clip-167"></g>
                            <path d="M192.0233,-36.1338 L360.0833,131.9262" id="Stroke-166" stroke="#1D1812" stroke-width="2.873" sketch:type="MSShapeGroup" mask="url(#mask-102)"></path>
                        </g>
                        <g id="Group-171">
                            <mask id="mask-104" sketch:name="Clip 170" fill="white">
                                <use xlink:href="#path-103"></use>
                            </mask>
                            <g id="Clip-170"></g>
                            <path d="M206.3875,-36.1338 L374.4485,131.9262" id="Stroke-169" stroke="#1D1812" stroke-width="2.873" sketch:type="MSShapeGroup" mask="url(#mask-104)"></path>
                        </g>
                    </g>
                </g>
                <g id="coeurs" transform="translate(0.000000, 102.000000)" sketch:type="MSShapeGroup">
                    <g id="heart-2" transform="translate(0.000000, 116.000000)">
                        <path d="M27.1267,41.4854 C28.7127,42.4454 31.7377,42.3234 34.1247,41.5084 C39.8397,39.5584 42.8647,33.3454 40.9167,27.6384 C39.3577,23.0704 35.0607,20.2174 30.4857,20.2384 C34.1207,17.4644 35.7477,12.5964 34.1917,8.0354 C32.2397,2.3164 26.0257,-0.7396 20.3027,1.2134 C18.0717,1.9744 16.1277,3.2014 14.8967,4.9584 L0.7677,30.3804 L25.5117,40.8964 C26.0007,41.1474 26.5467,41.3314 27.0627,41.5034 L27.1267,41.4854 Z" id="Fill-177" fill="#881A64"></path>
                        <path d="M27.1267,41.4854 C28.7127,42.4454 31.7377,42.3234 34.1247,41.5084 C39.8397,39.5584 42.8647,33.3454 40.9167,27.6384 C39.3577,23.0704 35.0607,20.2174 30.4857,20.2384 C34.1207,17.4644 35.7477,12.5964 34.1917,8.0354 C32.2397,2.3164 26.0257,-0.7396 20.3027,1.2134 C18.0717,1.9744 16.1277,3.2014 14.8967,4.9584 L0.7677,30.3804 L25.5117,40.8964 C26.0007,41.1474 26.5467,41.3314 27.0627,41.5034 L27.1267,41.4854 L27.1267,41.4854 Z" id="Stroke-179" stroke="#881A64" stroke-width="3.535" stroke-linecap="round" stroke-linejoin="round"></path>
                    </g>
                    <g id="heart-3" transform="translate(53.000000, 93.000000)">
                        <path d="M20.5818,12.1611 C21.4158,11.6801 22.1188,10.2711 22.3458,8.9801 C22.8908,5.8901 20.8198,2.9571 17.7338,2.4141 C15.2648,1.9791 12.8888,3.2211 11.7518,5.3081 C11.3998,2.9591 9.5918,0.9981 7.1258,0.5641 C4.0328,0.0181 1.0848,2.0821 0.5408,5.1771 C0.3278,6.3831 0.3978,7.5751 0.8908,8.5751 L8.9228,21.3771 L19.9098,12.7481 C20.1458,12.5891 20.3668,12.3871 20.5738,12.1951 L20.5818,12.1611 Z" id="Fill-181" fill="#881A64"></path>
                        <path d="M20.5818,12.1611 C21.4158,11.6801 22.1188,10.2711 22.3458,8.9801 C22.8908,5.8901 20.8198,2.9571 17.7338,2.4141 C15.2648,1.9791 12.8888,3.2211 11.7518,5.3081 C11.3998,2.9591 9.5918,0.9981 7.1258,0.5641 C4.0328,0.0181 1.0848,2.0821 0.5408,5.1771 C0.3278,6.3831 0.3978,7.5751 0.8908,8.5751 L8.9228,21.3771 L19.9098,12.7481 C20.1458,12.5891 20.3668,12.3871 20.5738,12.1951 L20.5818,12.1611 L20.5818,12.1611 Z" id="Stroke-183" stroke="#881A64" stroke-width="1.837" stroke-linecap="round" stroke-linejoin="round"></path>
                    </g>
                    <g id="heart-1" transform="translate(21.000000, 0.000000)">
                        <path d="M63.1687,27.9414 C65.3917,26.0824 66.7367,21.5434 66.7367,17.6014 C66.7367,8.1604 59.0727,0.5464 49.6457,0.5464 C42.0967,0.5464 35.7077,5.4644 33.4287,12.2424 C31.1607,5.4644 24.7777,0.5974 17.2427,0.5974 C7.7957,0.5974 0.1377,8.2504 0.1377,17.7034 C0.1377,21.3864 0.9697,24.8824 2.9457,27.5934 L33.4287,61.3364 L61.4817,30.0354 C62.1007,29.4374 62.6477,28.7224 63.1627,28.0464 L63.1687,27.9414 Z" id="Fill-173" fill="#881A64"></path>
                        <path d="M63.1687,27.9414 C65.3917,26.0824 66.7367,21.5434 66.7367,17.6014 C66.7367,8.1604 59.0727,0.5464 49.6457,0.5464 C42.0967,0.5464 35.7077,5.4644 33.4287,12.2424 C31.1607,5.4644 24.7777,0.5974 17.2427,0.5974 C7.7957,0.5974 0.1377,8.2504 0.1377,17.7034 C0.1377,21.3864 0.9697,24.8824 2.9457,27.5934 L33.4287,61.3364 L61.4817,30.0354 C62.1007,29.4374 62.6477,28.7224 63.1627,28.0464 L63.1687,27.9414 L63.1687,27.9414 Z" id="Stroke-175" stroke="#881A64" stroke-width="5.526" stroke-linecap="round" stroke-linejoin="round"></path>
                    </g>
                </g>
            </g>
        </g>
    </g>
</svg>
